<svg xmlns="http://www.w3.org/2000/svg" width="103.52" height="121.039" viewBox="0 0 103.52 121.039">
    <defs>
        <style>
            .cls-1{fill:none;stroke:#fff;stroke-linecap:round;stroke-linejoin:round;stroke-width:3px}.cls-2{fill:#fff}
        </style>
    </defs>
    <g id="Group_794" transform="translate(-326.066 -317.719)">
        <path id="Path_670" d="M343.724 356.4a29.941 29.941 0 0 1 7.447-1.285 5.62 5.62 0 0 1 2.67.457 4.218 4.218 0 0 0 1.732.362h.023a4.241 4.241 0 0 0 1.729-.367 5.586 5.586 0 0 1 2.667-.468 30 30 0 0 1 7.455 1.257" class="cls-1" transform="translate(24.548 55.372)"/>
        <path id="Path_671" d="M355.783 352.558c-.229-1.118-1.419-1.871-2.96-1.871a4.881 4.881 0 0 0-.977.1 4.348 4.348 0 0 0-2.2 1.133 2.274 2.274 0 0 0-.717 2.046c.229 1.118 1.418 1.871 2.958 1.871a4.887 4.887 0 0 0 .979-.1c1.917-.396 3.202-1.792 2.917-3.179z" class="cls-2" transform="translate(32.654 48.47)"/>
        <path id="Path_672" d="M349.06 350.786a4.771 4.771 0 0 0-.956-.1c-1.552 0-2.747.758-2.973 1.884-.278 1.388 1.01 2.778 2.935 3.166a4.963 4.963 0 0 0 .956.1c1.552 0 2.747-.758 2.973-1.884.277-1.393-1.01-2.781-2.935-3.166z" class="cls-2" transform="translate(26.698 48.471)"/>
        <path id="Path_673" d="M359.029 341.76c-3.968-2.416-10.081-5.934-15.7-5.934-4.019 0-5.6 1.105-8.473 3.14" class="cls-1" transform="translate(10.626 25.141)"/>
        <path id="Path_674" d="M355.7 342.409a35.809 35.809 0 0 1-9.362 1.58 33.626 33.626 0 0 1-9.364-1.58" class="cls-1" transform="translate(13.954 35.475)"/>
        <path id="Path_675" d="M352.417 341.76c3.97-2.416 10.084-5.934 15.7-5.934 4.019 0 5.6 1.105 8.473 3.14" class="cls-1" transform="translate(38.194 25.141)"/>
        <path id="Path_676" d="M352.417 342.409a35.848 35.848 0 0 0 9.364 1.58 33.641 33.641 0 0 0 9.364-1.58" class="cls-1" transform="translate(38.194 35.475)"/>
        <path id="Path_677" d="M340.174 402.719a74.738 74.738 0 0 1-9.881-25.423 18.693 18.693 0 0 1-.293-3.408V349.35c0-5.109 1.226-10 4.937-13.509a44.3 44.3 0 0 1 4.705-3.9 54.206 54.206 0 0 1 13.949-6.882" class="cls-1" transform="translate(3.005 8.246)"/>
        <path id="Path_678" d="M408.641 350.021c-8.413 22.246-27.553 39.813-44.231 39.813h-.19c-8.758 0-18.032-4.849-26.057-12.677" class="cls-1" transform="translate(15.819 47.424)"/>
        <path id="Path_679" d="M345.737 323.851c2.243-.224 4.453-.337 6.594-.337h.19c12.661 0 27.82 4.022 37.393 10.862a44.307 44.307 0 0 1 4.705 3.9 18.581 18.581 0 0 1 5.759 13.525v23.485" class="cls-1" transform="translate(27.708 5.814)"/>
        <path id="Line_4" d="M15.419 0L0 0" class="cls-1" transform="translate(372.836 419.269)"/>
        <path id="Path_680" d="M359.471 319.81l-13.867 9.8 13.542 10.118" class="cls-1" transform="translate(27.499)"/>
        <path id="Path_681" d="M328.086 357.7l15.1 7.766 2.71-16.685" class="cls-1" transform="translate(0 45.476)"/>
        <path id="Path_682" d="M359.7 357.781l15.1-7.766 2.71 16.685" class="cls-1" transform="translate(49.626 47.415)"/>
    </g>
</svg>
