<svg xmlns="http://www.w3.org/2000/svg" width="104.058" height="95.007" viewBox="0 0 104.058 95.007">
    <defs>
        <style>
            .cls-1{fill:none;stroke:#fff;stroke-linecap:round;stroke-linejoin:round;stroke-width:3px}
        </style>
    </defs>
    <g id="Group_830" transform="translate(-417.174 -220.996)">
        <path id="Path_723" d="M433.444 236.053a16.672 16.672 0 0 0 19.831-7.479 16.763 16.763 0 0 0 5.686 3.575" class="cls-1" transform="translate(15.094 6.204)"/>
        <path id="Path_724" d="M493.156 291.732a162.743 162.743 0 0 1-31.285 2.819c-18.173 0-34.124-2.465-43.15-6.175l-.047-.006c.59-4.422 2.4-9.224 7.948-11.131 7.283-2.509 17.55-1.363 21.849-8.415a8.5 8.5 0 0 0 .96-4.327v-3.1a16.745 16.745 0 0 1-4.814-7.677l-.633-2.3-.93.111a3.676 3.676 0 0 1-3.31-2.083 32.694 32.694 0 0 1-1.359-4.614 34.4 34.4 0 0 1-.558-3.757v-.093a2.854 2.854 0 0 1 0-.558v-.166a3.717 3.717 0 0 1 3.273-3.273c.02 0 .038.018.075 0" class="cls-1" transform="translate(0 14.796)"/>
        <path id="Path_725" d="M444.428 283.62c-.408.024-.811.063-1.225.063-11.363 0-20.573-8.282-20.573-19.645a20.509 20.509 0 0 1 6.729-15.209 16.137 16.137 0 0 0 3.876-5.031c.119-.255.237-.512.35-.768 2.8-6.29 3.138-12.261 8.393-17.233a12.444 12.444 0 0 1 8.551-3.273 47.451 47.451 0 0 1 7.243.489 47.439 47.439 0 0 1 7.243-.5 12.45 12.45 0 0 1 8.555 3.265c5.261 4.964 5.613 10.935 8.417 17.223.113.257.231.512.35.766a14.514 14.514 0 0 0 2.364 3.5" class="cls-1" transform="translate(4.043)"/>
        <path id="Path_726" d="M477.217 276.679a6.475 6.475 0 0 1-9.153-.057l-8.175-10.122a5.177 5.177 0 1 1 7.366-7.277l10.017 8.3a6.473 6.473 0 0 1-.055 9.156z" class="cls-1" transform="translate(40.592 35.957)"/>
        <path id="Line_6" d="M5.888 5.961L0 0" class="cls-1" transform="translate(494.638 289.178)"/>
        <circle id="Ellipse_9" cx="18.879" cy="18.879" r="18.879" class="cls-1" transform="rotate(-12.144 1457.495 -2026.56)"/>
        <path id="Path_727" d="M447.961 258.632a8.355 8.355 0 0 1 .073-11.8 8.271 8.271 0 0 1 2.81-1.836" class="cls-1" transform="translate(27.471 22.982)"/>
    </g>
</svg>
