<svg xmlns="http://www.w3.org/2000/svg" width="114.331" height="143.504" viewBox="0 0 114.331 143.504">
    <defs>
        <style>
            .cls-1{fill:#cae3b1}
        </style>
    </defs>
    <g id="Group_998" transform="translate(-418.112 -883.989)">
        <g id="Group_827" transform="translate(418.112 883.989)">
            <path id="Path_697" d="M449.688 1018.842c.95-.016 1.9-.009 2.85-.045s1.894-.047 2.84-.13l1.417-.105c.472-.032.941-.1 1.413-.149l1.411-.158c.47-.057.935-.148 1.4-.22l1.4-.23c.466-.078.926-.191 1.389-.285l1.386-.3c.463-.091.916-.231 1.373-.351l1.367-.373c.456-.123.912-.242 1.356-.406l2.679-.91-.107.046a6.18 6.18 0 0 0 2.144-2.541 16.182 16.182 0 0 0 1.233-3.368 45.82 45.82 0 0 0 1.18-7.27c.226-2.466.328-4.952.387-7.44s.062-4.984.022-7.481c-.024-2.5-.085-5-.148-7.5l-.227-7.508-.47-15.057c-.059-2.516-.122-5.034-.144-7.561-.018-1.264-.018-2.53-.008-3.8l.006-.9-.01-.943-.02-1.889c0-.639-.062-1.206-.088-1.813-.046-.6-.046-1.2-.117-1.8l-.194-1.8c-.057-.6-.191-1.18-.283-1.773a20.768 20.768 0 0 0-2.264-6.6 22.326 22.326 0 0 0-2.089-2.869 14.364 14.364 0 0 1-2.348-3.373c-.323-.733-.464-1.276-.673-1.873l-.152-.451-.082-.249-.052-.175c-.016-.064-.03-.13-.04-.2a1.259 1.259 0 0 1 .029-.479c-.294-.254 1.337-1.142 1.181-.821a1.276 1.276 0 0 1 .426.124l.1.056.078.051.049.034c.019.014 0 0-.02 0a.41.41 0 0 0-.253.026.942.942 0 0 0 .173-.208 4.113 4.113 0 0 0 .34-.674 9.461 9.461 0 0 0 .495-1.624 4.039 4.039 0 0 0 .057-1.5 1.836 1.836 0 0 0-.612-1.092c-.1-.088-.171-.138-.375-.309a1.053 1.053 0 0 1-.111-.108l-.065-.074a1.1 1.1 0 0 1-.123-.2.865.865 0 0 1-.088-.294.935.935 0 0 1 .238-.758.994.994 0 0 1 .184-.163 1.842 1.842 0 0 1 .19-.106 1.229 1.229 0 0 1 .116-.045 1.689 1.689 0 0 1 .179-.055c.39-.1.676-.14 1-.2l.465-.083c.1-.017.294-.061.437-.089a4.357 4.357 0 0 0 .718-.251 1.953 1.953 0 0 0 1.292-2.135 1.542 1.542 0 0 0-.212-.584.825.825 0 0 0-.134-.16c-.035-.028-.028 0 .045 0l-.139-.012-.059-.007-.118-.013-.117-.013-.059-.007-.1-.026a2.06 2.06 0 0 1-.752-.345 1.32 1.32 0 0 1-.287-.255 1.516 1.516 0 0 1-.232-.3 1.694 1.694 0 0 1-.172-.328 1.385 1.385 0 0 1-.066-.177 1.749 1.749 0 0 1-.056-.22l-.021-.115.018-.125.343-2.369.028-.528.015-.3-.039-.212a3.808 3.808 0 0 0-.235-.922 13.321 13.321 0 0 1-.91-2.363c-.026-.244-.049-.491-.067-.737v-.069.033-.075l-.008-.149-.016-.3c-.019-.19-.053-.277-.081-.448-.048-.2-.1-.366-.142-.6a7.51 7.51 0 0 1-.153-1.33c.008-.422-.017-.864.028-1.268l.087-1.234.138-1.211a4.579 4.579 0 0 0 .071-.977 1.345 1.345 0 0 0-.3-.643 4.275 4.275 0 0 0-1.6-1.084 17.744 17.744 0 0 0-4.382-1.136c-1.534-.233-3.1-.372-4.663-.463s-3.144-.116-4.72-.112q-1.183 0-2.363.037l-1.18.039-1.253.057c-1.549.01-3.138.069-4.7.157s-3.133.217-4.681.393-3.081.4-4.563.714a18.426 18.426 0 0 0-4.084 1.277 3.033 3.033 0 0 0-1.126.822c-.053.093-.024.088-.019.076s.01 0 .006 0a.03.03 0 0 1 .009.013v.009l.011.076.091.592.182 1.183c.053.418.1.883.139 1.323s.04.931.056 1.4c.009.229-.028.518-.043.775a5.9 5.9 0 0 1-.113.8c-.054.3-.092.433-.137.639-.018.135-.037.2-.042.312v.155l-.019.407-.042.6a9.6 9.6 0 0 1-.258 1.108c-.1.286-.189.5-.288.749l-.247.566-.168.422a2.45 2.45 0 0 0-.1 1.211l.371 2.365.054.346-.063.376c-.014.087-.045.227-.058.267l-.048.167a2.863 2.863 0 0 1-.114.311 3.235 3.235 0 0 1-.3.57 3.015 3.015 0 0 1-.406.528 2.745 2.745 0 0 1-.511.456 3.665 3.665 0 0 1-1.187.58 2.93 2.93 0 0 1-.562.108l-.276.03-.138.011h-.069c-.23.012.233-.011.178-.008l-.059.007H426.347a1.558 1.558 0 0 0 .271-.048c.045-.011.088-.025.131-.041l.095-.036a1.218 1.218 0 0 0 .21-.1.865.865 0 0 0 .144-.1.96.96 0 0 0 .225-.223c.047-.069.025-.04.028 0a.183.183 0 0 0 .043.155.939.939 0 0 0 .36.232 3.055 3.055 0 0 0 .461.153l.317.064.466.087.487.092c.185.039.333.064.633.145l.109.03.187.064.094.036c.046.019.031.009.129.053a2.666 2.666 0 0 1 .91.669 2.573 2.573 0 0 1 .437.683 2.617 2.617 0 0 1 .186 1.341 2.338 2.338 0 0 1-.227.77 2.776 2.776 0 0 1-.316.513c-.047.057-.1.113-.146.168s-.1.107-.156.157l-.079.071-.135.114-.069.054-.1.077c-.053.042-.072.058-.093.077-.07.066-.058.068-.064.085s-.015.046-.029.122a2.68 2.68 0 0 0 .056.9c.026.105.036.2.072.315l.083.3.14.439.106.277a3.105 3.105 0 0 0 .207.427c.01.013.01.006.011.012a.245.245 0 0 0-.042-.051 1.416 1.416 0 0 0-.535-.36 1.948 1.948 0 0 0-1.261-.069 1.592 1.592 0 0 0-.341.138c-.036.021-.036.021-.018.009l.118-.075c.064-.038.13-.074.2-.108a2.9 2.9 0 0 1 .971-.278c-.381-.748 3.463 1.334 2.765 1.925a2.78 2.78 0 0 1 .065 1.093 3.572 3.572 0 0 1-.081.382l-.08.258-.1.28-.163.451-.306.866-.076.217-.019.054-.094.232-.047.109-.186.433-.093.217c-.021.059-.106.2-.158.3-.12.214-.243.427-.371.636l-.194.314-.175.24-.35.467c-.464.6-.918 1.1-1.323 1.562a21.193 21.193 0 0 0-2.038 2.639 20.135 20.135 0 0 0-2.3 6.146c-.106.57-.256 1.12-.331 1.708l-.247 1.751c-.089.581-.109 1.189-.172 1.781-.045.6-.128 1.186-.143 1.794l-.073 1.816-.038.908-.023.943c-.029 1.278-.066 2.543-.118 3.807l-.322 7.558q-.378 7.539-.681 15.045l-.3 7.5q-.144 3.749-.19 7.494c-.05 2.5-.062 4.99-.009 7.478s.15 4.972.37 7.437a45.575 45.575 0 0 0 1.171 7.264 16.134 16.134 0 0 0 1.227 3.36 6.137 6.137 0 0 0 2.125 2.525l-.114-.048 2.677.911c.443.164.9.283 1.354.407l1.365.374c.456.121.908.263 1.371.354l1.385.3c.463.095.923.209 1.388.287l1.4.232c.468.073.932.164 1.4.223l1.41.161c.471.049.94.118 1.412.152l1.417.11c.944.085 1.893.1 2.84.139s1.888.034 2.838.053zm0 .519c-.953-.008-1.908.006-2.862-.021l-1.431-.038c-.477-.005-.953-.04-1.43-.062l-1.431-.072c-.477-.02-.952-.077-1.429-.114l-1.428-.124c-.476-.048-.95-.114-1.425-.169l-1.426-.174c-.475-.06-.945-.155-1.417-.23l-1.419-.236c-.475-.067-.94-.184-1.41-.279-.935-.212-1.884-.376-2.81-.628l-2.793-.722-.039-.01-.075-.038a7.628 7.628 0 0 1-2.941-2.939 19.976 19.976 0 0 1-1.677-3.594 49 49 0 0 1-1.94-7.5 130.708 130.708 0 0 1-1.764-15.2c-.147-2.536-.252-5.072-.329-7.606s-.095-5.066-.1-7.595c0-5.06.144-10.107.269-15.142l.22-7.533.09-3.74.021-.944.037-.978.076-1.957c.016-.651.1-1.312.151-1.968.065-.659.1-1.312.2-1.975l.3-1.985c.092-.661.269-1.331.4-1.995a24.315 24.315 0 0 1 3.135-7.856c1.559-2.446 3.963-4.458 4.452-5.582l.2-.43.049-.107.012-.027-.059.151.021-.057.084-.228.342-.907.167-.433.062-.163c.007-.018 0 .008-.008.033a1.732 1.732 0 0 0-.054.266 2.485 2.485 0 0 0 .065 1.034c-.7.579 3.121 2.635 2.723 1.9a2.718 2.718 0 0 0 .915-.258 1.623 1.623 0 0 0 .146-.079l.026-.016-.008.005c-.049.03-.114.073-.22.132a3.722 3.722 0 0 1-.771.328 3.333 3.333 0 0 1-2.185-.121 3.672 3.672 0 0 1-1.288-.914c-.116-.134-.251-.291-.339-.418s-.179-.259-.251-.38a7.848 7.848 0 0 1-.6-1.277c-.075-.2-.141-.408-.209-.612l-.135-.464-.048-.175-.04-.138-.071-.293c-.049-.19-.08-.407-.119-.608a7.471 7.471 0 0 1 .032-2.852 5.51 5.51 0 0 1 .65-1.63 5.256 5.256 0 0 1 1.161-1.338c.1-.082.2-.163.276-.217l.089-.066.024-.017-.045.037-.034.032c-.04.037-.079.075-.116.115a1.6 1.6 0 0 0-.1.126 2.4 2.4 0 0 0-.287.461 2.334 2.334 0 0 0-.208.717 2.406 2.406 0 0 0 .181 1.283 2.366 2.366 0 0 0 .4.638 2.541 2.541 0 0 0 .429.381 1.836 1.836 0 0 0 .334.191l.114.048.076.024h-.005a1.017 1.017 0 0 0-.1-.028l-.187-.044-.439-.1-.459-.1-.6-.143a7.843 7.843 0 0 1-1.31-.488 5.6 5.6 0 0 1-2.448-2.2 5.067 5.067 0 0 1-.589-3.485 4.773 4.773 0 0 1 .7-1.756 3.888 3.888 0 0 1 .849-.925c.109-.083.223-.159.338-.231a3.776 3.776 0 0 1 .42-.21c.028-.012.084-.035.151-.057l.187-.058a3.39 3.39 0 0 1 .384-.081l.1-.013h.03l.059-.005c-.035 0 .447-.024.237-.014h-.031a.154.154 0 0 0-.04 0c-.038 0-.028.026-.1.031a1.075 1.075 0 0 0-.343.174l-.158.146c-.051.046-.083.114-.117.158s-.053.106-.075.155l-.03.09-.014.054s-.025.1-.03.152l-.008.722-.318-2.376c-.024-.245-.04-.58-.051-.866l-.01-.446.054-.461a6.779 6.779 0 0 1 .434-1.719c.1-.226.2-.484.3-.68l.25-.523.158-.362c0-.022.016-.019.056-.046l.062-.6V897.641l-.007.2.005-.111.011-.222.03-.443a8.236 8.236 0 0 1 .155-.866c.047-.182.119-.438.133-.527a2.147 2.147 0 0 0 .067-.382 4.177 4.177 0 0 0 .038-.418c-.008-.332.027-.636-.009-1l-.06-1.063-.124-1.19-.062-.6V891c0 .011-.007-.051 0 .021l-.007-.071-.012-.143-.018-.284a5.559 5.559 0 0 1 .033-.594 4.282 4.282 0 0 1 .893-2.1 6.9 6.9 0 0 1 2.718-1.953 20.387 20.387 0 0 1 5.105-1.323c1.661-.243 3.3-.379 4.934-.464s3.258-.114 4.88-.108 3.229.048 4.871.138l1.14.014 1.214.032q1.212.04 2.423.106c1.614.088 3.227.223 4.84.388s3.226.392 4.835.716c.8.16 1.609.352 2.41.585a15.455 15.455 0 0 1 2.4.879 5.967 5.967 0 0 1 2.245 1.691 3.132 3.132 0 0 1 .618 1.537 4.091 4.091 0 0 1 .01.473l-.037.348-.084.581-.168 1.163c-.045.386-.077.767-.112 1.152s-.022.748-.037 1.123a5.966 5.966 0 0 0 .107 1.045c.024.157.084.373.128.564a6.791 6.791 0 0 1 .115.731l.03.635c.016.152.027.3.035.455a13.624 13.624 0 0 0 .81 2.095 5.26 5.26 0 0 1 .323 1.4l.035.381-.018.3-.018.3-.009.149v.074l-.01.107-.005.037-.334 2.37v-.24c0-.019.033.1.072.138a.213.213 0 0 0 .058.072.133.133 0 0 0 .065.054c.053.049.079.032.092.061 0 0 0 .009.011.013l.059.006.117.013.117.012.059.006h.029c.095.006-.1 0-.05 0a1.532 1.532 0 0 1 .908.335 2.332 2.332 0 0 1 .489.542 3.241 3.241 0 0 1 .458 1.167 3.445 3.445 0 0 1-.4 2.38 3.962 3.962 0 0 1-1.751 1.561 6.273 6.273 0 0 1-1.054.391c-.165.04-.279.074-.484.119l-.46.1c-.3.066-.63.136-.848.2a.2.2 0 0 0-.046.017s-.018.006.006 0a.377.377 0 0 0 .087-.049.936.936 0 0 0 .14-.124.766.766 0 0 0 .132-.214.8.8 0 0 0 .064-.442.859.859 0 0 0-.068-.24.787.787 0 0 0-.093-.15l-.024-.031c-.021-.023-.04-.038-.025-.028.039.03.224.16.365.276a3.729 3.729 0 0 1 1.292 2.082 5.9 5.9 0 0 1 .032 2.252 11.428 11.428 0 0 1-.523 2.006 6.949 6.949 0 0 1-.467 1.029 2.512 2.512 0 0 1-1.14 1.105 1.786 1.786 0 0 1-1.176.077 2.2 2.2 0 0 1-.452-.188l-.152-.088c-.006 0-.038-.023-.022-.012l.046.026a1.114 1.114 0 0 0 .371.1c-.174.307 1.436-.554 1.139-.795a.975.975 0 0 0 .028-.421.355.355 0 0 0-.014-.08l.02.05.078.2.177.433c.239.579.477 1.238.7 1.642a12.18 12.18 0 0 0 2.146 2.654 24.984 24.984 0 0 1 2.574 3.058 23.732 23.732 0 0 1 3.175 7.4c.148.641.342 1.285.45 1.929l.349 1.935c.121.645.175 1.3.258 1.959.067.647.172 1.33.2 1.95l.129 1.884.064.941.051.982.2 3.748.4 7.53c.113 2.515.234 5.033.308 7.555.09 2.521.139 5.047.172 7.574.018 2.529.027 5.059-.033 7.592-.044 2.533-.146 5.068-.286 7.6a126.955 126.955 0 0 1-1.717 15.19 48.481 48.481 0 0 1-1.93 7.49 19.864 19.864 0 0 1-1.671 3.585 7.577 7.577 0 0 1-2.922 2.924l-.07.036-.037.01-2.791.722c-.925.253-1.874.418-2.808.631-.469.1-.934.213-1.41.28l-1.417.238c-.473.077-.942.172-1.417.232l-1.425.176-1.424.172-1.428.128c-.476.038-.951.095-1.428.117l-1.431.074c-.476.023-.953.06-1.43.067l-1.432.042c-.952.044-1.902.032-2.854.043z" class="cls-1" transform="translate(-418.112 -883.989)"/>
            <path id="Path_698" d="M448.121 936.658l.361.057 1.019.14 1.581.2c.609.074 1.3.142 2.047.219s1.565.125 2.42.215c.861.046 1.764.128 2.7.167l1.426.07 1.462.038c.982.048 1.982.036 2.98.032 1 .033 2-.032 2.98-.042.983-.028 1.949-.086 2.887-.126s1.838-.139 2.7-.191 1.669-.15 2.42-.223c.747-.089 1.443-.122 2.051-.209s1.141-.146 1.581-.2c.881-.1 1.39-.145 1.39-.145s-.477.171-1.323.447c-.424.135-.938.305-1.533.48s-1.277.332-2.02.507-1.55.374-2.418.494-1.774.323-2.727.4l-1.45.148c-.49.052-.986.1-1.489.114-1 .029-2.024.115-3.045.1s-2.042-.021-3.045-.087c-1-.034-1.988-.146-2.939-.247-.953-.078-1.864-.257-2.73-.38-.863-.158-1.678-.3-2.421-.487l-1.068-.251-.954-.265c-.6-.159-1.112-.339-1.535-.477-.842-.292-1.308-.498-1.308-.498z" class="cls-1" transform="translate(-432.546 -909.323)"/>
            <path id="Path_699" d="M448.121 927.244s.5.1 1.367.248c.437.068.965.157 1.574.242s1.294.177 2.043.268 1.564.159 2.42.261c.862.058 1.766.157 2.707.2l1.429.083 1.467.049c.986.051 1.989.042 2.991.041 1 .03 2-.037 2.99-.051s1.956-.1 2.9-.148 1.842-.162 2.7-.226 1.67-.178 2.419-.268 1.441-.155 2.046-.258l1.573-.245 1.379-.2-1.334.4-1.54.434c-.6.17-1.281.3-2.026.457s-1.552.34-2.418.449-1.772.293-2.723.368l-1.445.134c-.489.047-.983.1-1.484.105-1 .025-2.016.107-3.034.087s-2.035-.015-3.035-.078c-1-.032-1.982-.131-2.93-.224-.951-.071-1.86-.234-2.726-.345-.862-.146-1.676-.275-2.421-.441l-1.069-.227-.957-.239c-.6-.145-1.116-.307-1.542-.43-.849-.261-1.321-.446-1.321-.446z" class="cls-1" transform="translate(-432.546 -904.795)"/>
            <path id="Path_700" d="M448.121 922.831s.5.1 1.367.247c.437.068.965.157 1.574.242s1.294.177 2.043.268 1.564.159 2.42.26c.862.058 1.766.156 2.707.2l1.429.084 1.467.048c.986.051 1.989.042 2.991.042 1 .03 2-.038 2.99-.052s1.956-.1 2.9-.148 1.842-.161 2.7-.226 1.67-.178 2.419-.268 1.441-.155 2.046-.258l1.573-.245 1.379-.2-1.334.4-1.54.434c-.6.169-1.281.295-2.026.456s-1.552.341-2.418.449-1.772.294-2.723.368l-1.445.134c-.489.047-.983.1-1.484.105-1 .026-2.016.108-3.034.087s-2.035-.014-3.035-.078c-1-.032-1.982-.131-2.93-.223-.951-.072-1.86-.235-2.726-.345-.862-.147-1.676-.275-2.421-.442l-1.069-.227-.957-.239c-.6-.144-1.116-.307-1.542-.43-.849-.258-1.321-.443-1.321-.443z" class="cls-1" transform="translate(-432.546 -902.672)"/>
            <path id="Path_701" d="M431.121 1025.717l2.156.238 2.463.24c.948.093 2.019.174 3.184.265.581.052 1.186.1 1.815.133l1.938.139 2.049.109 1.057.064 1.079.038 2.206.094 2.261.048c1.52.053 3.064.043 4.609.043l1.158.013 1.155-.031c.769-.025 1.535-.029 2.3-.043 1.522-.02 3.014-.131 4.466-.167.727-.008 1.437-.074 2.134-.119l2.046-.129c1.336-.051 2.589-.19 3.754-.284l1.675-.127c.535-.033 1.043-.059 1.514-.122.945-.113 1.778-.181 2.464-.244s1.231-.094 1.6-.124l.571-.033-.529.207c-.348.127-.853.33-1.508.555s-1.446.515-2.367.809c-.917.311-1.975.56-3.126.86s-2.406.612-3.751.829l-2.068.36c-.706.129-1.43.238-2.17.313l-2.255.244c-.762.081-1.534.167-2.316.19-.781.038-1.568.085-2.359.111l-1.188.045h-1.192l-2.38-.029c-.792.007-1.578-.079-2.359-.114-1.562-.073-3.094-.228-4.572-.411-.739-.08-1.465-.172-2.171-.3l-2.071-.339c-1.338-.275-2.6-.513-3.756-.816l-1.651-.43-1.476-.445c-.926-.267-1.718-.573-2.371-.8-1.305-.488-2.018-.84-2.018-.84z" class="cls-1" transform="translate(-424.369 -952.161)"/>
            <path id="Path_702" d="M431.121 1121.639l2.156.238 2.463.239c.948.093 2.019.175 3.184.265.581.052 1.186.1 1.815.135l1.938.138 2.049.108 1.057.064 1.079.038 2.206.093 2.261.048c1.52.053 3.064.043 4.609.043l1.158.013 1.155-.031c.769-.025 1.535-.029 2.3-.042 1.522-.02 3.014-.131 4.466-.167.727-.008 1.437-.074 2.134-.118l2.046-.129c1.336-.05 2.589-.189 3.754-.284l1.675-.127c.535-.033 1.043-.059 1.514-.122.945-.114 1.778-.182 2.464-.244s1.231-.094 1.6-.125l.571-.032-.529.207c-.348.127-.853.331-1.508.554s-1.446.516-2.367.809c-.917.311-1.975.559-3.126.86s-2.406.612-3.751.829l-2.068.36c-.706.128-1.43.238-2.17.313l-2.255.243c-.762.081-1.534.167-2.316.191s-1.568.084-2.359.11l-1.188.046h-1.192l-2.38-.029c-.792.007-1.578-.079-2.359-.114-1.562-.073-3.094-.228-4.572-.411-.739-.081-1.465-.173-2.171-.3l-2.071-.339c-1.338-.276-2.6-.512-3.756-.817l-1.651-.429-1.476-.446c-.926-.268-1.718-.573-2.371-.8-1.305-.487-2.018-.838-2.018-.838z" class="cls-1" transform="translate(-424.369 -998.3)"/>
            <path id="Path_703" d="M448.121 914.418s.5.1 1.367.246c.437.068.965.157 1.574.242s1.294.178 2.043.269 1.564.159 2.42.261c.862.059 1.766.156 2.707.2l1.429.084 1.467.048c.986.051 1.989.042 2.991.041 1 .03 2-.038 2.99-.051s1.956-.1 2.9-.148 1.842-.161 2.7-.226 1.67-.177 2.419-.268 1.441-.155 2.046-.258l1.573-.246 1.379-.195-1.334.4-1.54.434c-.6.17-1.281.3-2.026.457s-1.552.34-2.418.449-1.772.293-2.723.368l-1.445.134c-.489.046-.983.1-1.484.1-1 .026-2.016.108-3.034.088s-2.035-.015-3.035-.078c-1-.032-1.982-.131-2.93-.223-.951-.072-1.86-.235-2.726-.345-.862-.147-1.676-.274-2.421-.441l-1.069-.227-.957-.239c-.6-.144-1.116-.307-1.542-.43-.849-.264-1.321-.446-1.321-.446z" class="cls-1" transform="translate(-432.546 -898.625)"/>
            <path id="Path_704" d="M448.121 899.315l5.08.164c.75.037 1.566.037 2.42.079.858 0 1.755.058 2.686.06.465 0 .936.017 1.414.033l1.447.01c.973.022 1.961.014 2.948.01.987.034 1.974-.037 2.947-.021l2.86-.061c.931 0 1.827-.073 2.685-.084s1.668-.06 2.421-.087 1.452-.021 2.067-.057 1.157-.041 1.606-.051.806 0 1.049 0l.375.01-.334.164c-.22.1-.539.262-.956.433s-.92.4-1.507.628-1.266.426-2 .658-1.549.462-2.418.631-1.782.392-2.741.509c-.478.07-.967.125-1.461.185s-1 .124-1.5.143c-1.014.056-2.045.134-3.078.117s-2.065-.016-3.078-.109c-1.014-.057-2.008-.174-2.966-.313-.96-.115-1.877-.321-2.745-.486-.865-.207-1.68-.393-2.422-.623s-1.416-.443-2.007-.667-1.1-.445-1.511-.623a12.685 12.685 0 0 1-1.281-.652z" class="cls-1" transform="translate(-432.546 -891.354)"/>
            <path id="Path_705" d="M448.121 949.052l5.08.164c.75.037 1.566.037 2.42.078.858 0 1.755.059 2.686.061.465 0 .936.017 1.414.032l1.447.01c.973.022 1.961.013 2.948.01.987.034 1.974-.038 2.947-.022l2.86-.06c.931 0 1.827-.074 2.685-.084s1.668-.06 2.421-.087 1.452-.021 2.067-.058 1.157-.041 1.606-.051.806 0 1.049 0l.375.009-.334.165c-.22.1-.539.262-.956.434s-.92.4-1.507.628-1.266.426-2 .657-1.549.462-2.418.632-1.782.391-2.741.51c-.478.07-.967.125-1.461.184s-1 .124-1.5.143c-1.014.055-2.045.134-3.078.117s-2.065-.016-3.078-.109c-1.014-.057-2.008-.174-2.966-.312-.96-.115-1.877-.322-2.745-.487-.865-.207-1.68-.393-2.422-.623s-1.416-.444-2.007-.667-1.1-.446-1.511-.623a12.818 12.818 0 0 1-1.281-.651z" class="cls-1" transform="translate(-432.546 -915.278)"/>
            <path id="Path_706" d="M446.65 1098.644l-.009.281a4.3 4.3 0 0 1-.113.789 4.842 4.842 0 0 1-1.468 2.516 4.925 4.925 0 0 1-1.868 1.052 4.359 4.359 0 0 1-.626.131 3.086 3.086 0 0 1-.585.056 4.693 4.693 0 0 1-3.831-1.826 4.959 4.959 0 0 1-1.028-3v-.152l.005-.073.011-.146a3.74 3.74 0 0 1 .047-.395 4.381 4.381 0 0 1 .2-.832 5 5 0 0 1 .756-1.4 4.684 4.684 0 0 1 5.017-1.647 4.12 4.12 0 0 1 1.076.459 4.8 4.8 0 0 1 2.291 3.12 4.294 4.294 0 0 1 .113.788c.009.181.012.279.012.279zm0 0l-.02-.281a3.589 3.589 0 0 0-.154-.774 3.2 3.2 0 0 0-2.585-2.211 2.946 2.946 0 0 0-.822 0 3.011 3.011 0 0 0-1.568.645 3.421 3.421 0 0 0-.958 1.218 4.206 4.206 0 0 0-.232.692c-.014.121-.048.245-.049.312a.768.768 0 0 0-.018.187V1098.646a4.075 4.075 0 0 0 .073.715 4.284 4.284 0 0 0 .231.7 3.387 3.387 0 0 0 .959 1.223 3.672 3.672 0 0 0 .69.42 1.907 1.907 0 0 0 .458.144 2.4 2.4 0 0 0 .393.082 3.171 3.171 0 0 0 1.657-.238 3.28 3.28 0 0 0 1.781-1.986 3.53 3.53 0 0 0 .154-.774c.003-.191.01-.288.01-.288z" class="cls-1" transform="translate(-427.256 -984.915)"/>
            <path id="Path_707" d="M465.1 1081.972l-.008.279a4.269 4.269 0 0 1-.112.782 4.813 4.813 0 0 1-1.456 2.5 4.891 4.891 0 0 1-1.854 1.047 4.4 4.4 0 0 1-.622.13 3.028 3.028 0 0 1-.581.057 4.675 4.675 0 0 1-3.81-1.813 4.933 4.933 0 0 1-.753-1.394 4.225 4.225 0 0 1-.195-.783 3.173 3.173 0 0 1-.05-.4l-.013-.2-.006-.1v-.18a5.847 5.847 0 0 1 .065-.683 4.311 4.311 0 0 1 .2-.827 4.954 4.954 0 0 1 .753-1.4 4.651 4.651 0 0 1 4.988-1.634 4.122 4.122 0 0 1 1.069.457 4.888 4.888 0 0 1 .818.6 4.823 4.823 0 0 1 1.454 2.5 4.308 4.308 0 0 1 .112.783zm0 0l-.019-.278a2.244 2.244 0 0 0-.045-.332 2.131 2.131 0 0 0-.109-.438 3.157 3.157 0 0 0-2.566-2.191 2.877 2.877 0 0 0-.815 0 2.976 2.976 0 0 0-1.552.641 3.4 3.4 0 0 0-.945 1.207 4.235 4.235 0 0 0-.228.686c-.014.119-.048.242-.049.307a3.96 3.96 0 0 0-.029.476v-.073.173a.953.953 0 0 0 .014.176c.009.119.038.233.052.351a4.17 4.17 0 0 0 .227.687 3.349 3.349 0 0 0 .947 1.213 3.648 3.648 0 0 0 .682.418 1.873 1.873 0 0 0 .454.144 2.437 2.437 0 0 0 .389.082 3.147 3.147 0 0 0 1.644-.233 3.247 3.247 0 0 0 1.768-1.969 2.129 2.129 0 0 0 .108-.437 2.247 2.247 0 0 0 .045-.332c.027-.181.027-.278.027-.278z" class="cls-1" transform="translate(-436.163 -976.91)"/>
            <path id="Path_708" d="M452.036 1047.7s0 .115-.011.33a4.917 4.917 0 0 1-.136.922 5.521 5.521 0 0 1-1.747 2.9 5.643 5.643 0 0 1-2.171 1.163c-.11.034-.223.049-.337.075a2.387 2.387 0 0 1-.377.06 3.743 3.743 0 0 1-.675.048 5.391 5.391 0 0 1-1.557-.224 5.446 5.446 0 0 1-2.745-1.9 5.7 5.7 0 0 1-.842-1.581 5.041 5.041 0 0 1-.217-.886 3.519 3.519 0 0 1-.056-.453l-.014-.228-.007-.114v-.194a6.578 6.578 0 0 1 .074-.788 5.065 5.065 0 0 1 .22-.93 5.5 5.5 0 0 1 2.1-2.779 5.584 5.584 0 0 1 1.492-.711 5.428 5.428 0 0 1 2.919-.043 4.873 4.873 0 0 1 1.239.5 5.472 5.472 0 0 1 2.71 3.578 4.862 4.862 0 0 1 .136.922c-.002.214.002.333.002.333zm0 0l-.022-.328a2.647 2.647 0 0 0-.05-.391 2.7 2.7 0 0 0-.127-.518 3.94 3.94 0 0 0-2.061-2.37 3.978 3.978 0 0 0-.943-.3 3.634 3.634 0 0 0-.985-.042 3.722 3.722 0 0 0-1.923.7 4.1 4.1 0 0 0-1.251 1.466 4.79 4.79 0 0 0-.317.873c-.023.153-.066.31-.071.41a4.72 4.72 0 0 0-.038.581v-.072V1047.932a1.206 1.206 0 0 0 .02.229c.013.154.052.3.074.454a4.832 4.832 0 0 0 .316.875 4.074 4.074 0 0 0 1.253 1.471 4.192 4.192 0 0 0 .868.471 2.567 2.567 0 0 0 .547.152 3.527 3.527 0 0 0 .481.077 3.869 3.869 0 0 0 1.961-.348 3.957 3.957 0 0 0 2.059-2.374 4.228 4.228 0 0 0 .177-.909z" class="cls-1" transform="translate(-429.188 -960.084)"/>
        </g>
        <g id="Group_828" transform="translate(486.051 927.733)">
            <path id="Path_709" d="M572.286 1067.653c.7-.012 1.4-.007 2.1-.033s1.4-.035 2.093-.1l1.044-.078c.348-.023.694-.074 1.042-.11l1.04-.117c.346-.042.689-.109 1.033-.162l1.032-.169c.344-.058.682-.141 1.024-.21l1.021-.221c.341-.067.675-.171 1.012-.259l1.007-.275c.335-.091.672-.179 1-.3l1.974-.671-.079.033a4.549 4.549 0 0 0 1.58-1.873 11.883 11.883 0 0 0 .909-2.482 33.751 33.751 0 0 0 .869-5.358c.167-1.818.242-3.649.285-5.483s.046-3.673.016-5.513-.062-3.682-.109-5.525l-.167-5.532-.347-11.1c-.044-1.854-.089-3.709-.106-5.572-.013-.931-.013-1.864-.006-2.8v-.666l-.008-.7-.015-1.391c0-.471-.045-.888-.065-1.336s-.034-.883-.086-1.324l-.143-1.327c-.042-.445-.141-.869-.208-1.306a15.33 15.33 0 0 0-1.669-4.865 16.5 16.5 0 0 0-1.54-2.114 10.594 10.594 0 0 1-1.73-2.486c-.238-.54-.342-.94-.5-1.38l-.112-.333-.061-.183-.038-.129c-.012-.047-.022-.1-.03-.144a.931.931 0 0 1 .021-.353c-.216-.188.986-.841.87-.605a.929.929 0 0 1 .313.091l.072.041.057.037.036.025c.013.01 0 0-.015 0a.3.3 0 0 0-.186.019c-.075.054.048-.019.128-.153a3.044 3.044 0 0 0 .251-.5 6.943 6.943 0 0 0 .364-1.2 2.979 2.979 0 0 0 .042-1.105 1.352 1.352 0 0 0-.451-.8c-.072-.065-.127-.1-.276-.228a.736.736 0 0 1-.082-.08l-.048-.055a.8.8 0 0 1-.09-.147.632.632 0 0 1-.065-.217.742.742 0 0 1 .051-.368.72.72 0 0 1 .124-.191.74.74 0 0 1 .135-.12 1.277 1.277 0 0 1 .14-.078.805.805 0 0 1 .086-.033 1.165 1.165 0 0 1 .132-.04c.287-.073.5-.1.733-.147l.343-.061c.076-.012.216-.045.322-.066a3.193 3.193 0 0 0 .529-.184 1.44 1.44 0 0 0 .952-1.573 1.138 1.138 0 0 0-.157-.431.585.585 0 0 0-.1-.117c-.025-.021-.021 0 .033 0l-.1-.009h-.043l-.087-.01-.086-.009-.044-.005-.074-.019a1.535 1.535 0 0 1-.554-.255.959.959 0 0 1-.211-.188 1.092 1.092 0 0 1-.171-.22 1.254 1.254 0 0 1-.127-.242.987.987 0 0 1-.049-.131 1.249 1.249 0 0 1-.041-.161l-.016-.085.013-.092.253-1.745.021-.389.011-.22-.029-.156a2.791 2.791 0 0 0-.173-.68 9.758 9.758 0 0 1-.67-1.741c-.02-.18-.037-.362-.05-.543V978.469v.024-.056l-.006-.11-.012-.221c-.013-.14-.039-.2-.06-.33-.035-.146-.073-.27-.1-.444a5.539 5.539 0 0 1-.113-.98c.006-.311-.012-.637.02-.935l.064-.909.1-.892a3.374 3.374 0 0 0 .052-.72.99.99 0 0 0-.218-.474 3.162 3.162 0 0 0-1.179-.8 13.1 13.1 0 0 0-3.229-.837c-1.13-.172-2.282-.274-3.436-.341s-2.317-.085-3.478-.083q-.871 0-1.742.027l-.869.029-.923.042c-1.141.008-2.313.051-3.465.116s-2.309.16-3.45.29-2.271.295-3.363.526a13.6 13.6 0 0 0-3.009.941 2.23 2.23 0 0 0-.83.606c-.039.069-.018.065-.015.056s.008 0 0 0a.025.025 0 0 1 .006.009v.007l.008.056.066.436.134.872c.039.309.071.651.1.975s.029.686.041 1.028c.007.169-.02.383-.032.571a4.191 4.191 0 0 1-.083.589c-.04.224-.068.319-.1.471-.013.1-.028.149-.031.23v.115l-.014.3-.031.44a7.115 7.115 0 0 1-.19.816c-.072.211-.139.367-.212.552l-.182.417-.124.311a1.805 1.805 0 0 0-.072.893l.273 1.743.04.255-.046.277c-.01.064-.033.167-.043.2l-.036.123a1.9 1.9 0 0 1-.084.229 2.393 2.393 0 0 1-.218.42 2.235 2.235 0 0 1-.3.389 2.036 2.036 0 0 1-.376.336 2.706 2.706 0 0 1-.874.428 2.214 2.214 0 0 1-.414.08l-.2.022-.1.008h-.05l.131-.006-.044.005H555.074a1.2 1.2 0 0 0 .2-.036c.033-.008.065-.019.1-.03l.07-.026a.91.91 0 0 0 .155-.076.63.63 0 0 0 .106-.072.731.731 0 0 0 .166-.164c.035-.051.019-.03.021 0a.133.133 0 0 0 .032.114.68.68 0 0 0 .265.171 2.131 2.131 0 0 0 .34.113l.233.048.344.064.359.068c.137.029.245.047.467.107l.08.022.138.047.07.026a.95.95 0 0 1 .095.039 1.957 1.957 0 0 1 .671.493 1.9 1.9 0 0 1 .322.5 1.927 1.927 0 0 1 .137.988 1.733 1.733 0 0 1-.167.568 2.006 2.006 0 0 1-.234.377c-.034.042-.07.084-.107.124s-.076.078-.115.116l-.058.052-.1.084-.051.04-.073.057c-.039.031-.052.043-.068.057-.052.049-.043.05-.047.063s-.011.033-.022.09a1.97 1.97 0 0 0 .042.663c.019.078.026.148.052.232l.061.221.1.323.078.2a2.314 2.314 0 0 0 .153.314c.007.01.008 0 .008.01a.167.167 0 0 0-.031-.038 1.032 1.032 0 0 0-.393-.266 1.435 1.435 0 0 0-.93-.051 1.159 1.159 0 0 0-.251.1c-.026.016-.026.015-.013.006l.087-.055c.047-.029.1-.056.145-.08a2.13 2.13 0 0 1 .715-.2c-.28-.552 2.552.983 2.038 1.419a2.053 2.053 0 0 1 .048.805 2.491 2.491 0 0 1-.06.281l-.058.19-.073.207-.12.332-.226.638-.055.16-.014.04-.07.171-.035.08-.137.319-.068.16c-.016.044-.079.148-.117.219-.088.157-.18.315-.273.469l-.143.23-.129.177-.258.344c-.342.44-.677.811-.975 1.152a15.57 15.57 0 0 0-1.5 1.945 14.818 14.818 0 0 0-1.7 4.53c-.078.42-.189.825-.244 1.258l-.182 1.29c-.065.428-.08.876-.127 1.313s-.094.874-.105 1.322l-.055 1.338-.028.669-.017.695c-.021.942-.049 1.874-.087 2.805l-.237 5.57q-.279 5.554-.5 11.087l-.218 5.53q-.107 2.763-.14 5.523c-.036 1.839-.046 3.678-.007 5.511s.11 3.664.273 5.481a33.531 33.531 0 0 0 .862 5.353 11.874 11.874 0 0 0 .9 2.476 4.529 4.529 0 0 0 1.566 1.862l-.084-.036 1.972.672c.327.12.663.209 1 .3l1.006.276c.336.089.669.194 1.01.26l1.021.222c.34.07.679.154 1.022.211l1.032.171c.344.053.687.121 1.033.164l1.04.119c.347.036.692.087 1.041.112l1.044.081c.7.063 1.4.071 2.093.1s1.402.042 2.101.056zm0 .383c-.7-.007-1.406 0-2.109-.015l-1.054-.029c-.352 0-.7-.03-1.055-.046l-1.055-.052c-.351-.015-.7-.057-1.053-.084l-1.053-.092c-.35-.035-.7-.084-1.05-.125l-1.05-.129c-.35-.044-.7-.114-1.045-.169l-1.045-.175c-.35-.049-.693-.135-1.04-.206-.689-.156-1.388-.277-2.071-.463l-2.058-.531-.029-.008-.056-.028a5.626 5.626 0 0 1-2.167-2.166 14.7 14.7 0 0 1-1.236-2.648 36.1 36.1 0 0 1-1.43-5.524 96.281 96.281 0 0 1-1.3-11.2c-.108-1.87-.186-3.738-.242-5.6s-.07-3.734-.075-5.6c0-3.728.106-7.449.2-11.158l.161-5.551.067-2.756.016-.7.027-.721.056-1.441c.012-.48.075-.967.111-1.451s.072-.967.148-1.455l.219-1.463c.067-.487.2-.98.3-1.47a17.9 17.9 0 0 1 2.311-5.789c1.148-1.8 2.92-3.285 3.281-4.114l.144-.317.036-.079.009-.02c-.02.052.058-.144-.043.112l.016-.042.062-.168.253-.668.122-.32.046-.12c.005-.013 0 .006-.006.024a1.33 1.33 0 0 0-.04.2 1.833 1.833 0 0 0 .048.762c-.516.427 2.3 1.942 2.006 1.4a2 2 0 0 0 .675-.19c.036-.018.073-.037.107-.059l.019-.012h-.006l-.161.1a2.761 2.761 0 0 1-.569.242 2.46 2.46 0 0 1-1.61-.089 2.706 2.706 0 0 1-.949-.674 3.869 3.869 0 0 1-.25-.308c-.063-.091-.131-.191-.185-.28a5.716 5.716 0 0 1-.442-.94c-.056-.147-.1-.3-.155-.451l-.1-.342-.036-.13-.026-.107-.052-.216c-.036-.14-.059-.3-.088-.448a5.513 5.513 0 0 1 .023-2.1 4.059 4.059 0 0 1 .479-1.2 3.875 3.875 0 0 1 .855-.987c.073-.06.151-.12.2-.159l.066-.049.018-.012-.033.027-.025.023c-.03.027-.058.056-.085.085s-.053.061-.078.092a1.8 1.8 0 0 0-.211.339 1.745 1.745 0 0 0-.153.529 1.814 1.814 0 0 0 .428 1.415 1.973 1.973 0 0 0 .317.281 1.368 1.368 0 0 0 .246.14l.084.035.056.019c.009 0-.039-.011-.073-.02l-.138-.032-.323-.07-.339-.072-.445-.106a5.666 5.666 0 0 1-.966-.36 4.117 4.117 0 0 1-1.8-1.624 3.73 3.73 0 0 1-.434-2.568 3.5 3.5 0 0 1 .515-1.293 2.859 2.859 0 0 1 .625-.682c.081-.061.164-.117.25-.17a2.871 2.871 0 0 1 .31-.155c.02-.009.062-.025.111-.042l.139-.043a2.547 2.547 0 0 1 .282-.06l.072-.009h.065c-.026 0 .33-.018.174-.011h-.023a.1.1 0 0 0-.03 0c-.027 0-.021.019-.073.023a.8.8 0 0 0-.253.128c-.04.039-.079.072-.116.107s-.061.084-.086.117-.039.078-.056.114l-.021.066-.011.04s-.018.076-.022.112l-.006.531-.226-1.749c-.018-.181-.029-.428-.037-.638l-.008-.328.04-.34a5 5 0 0 1 .32-1.267c.071-.166.151-.357.219-.5l.184-.385.116-.267c0-.016.012-.014.041-.034l.046-.439v-.041c.006-.149-.006.19 0 .146v-.081l.009-.164.021-.326a5.99 5.99 0 0 1 .115-.639c.034-.134.088-.322.1-.388a1.547 1.547 0 0 0 .049-.282 2.962 2.962 0 0 0 .028-.308c-.006-.244.02-.468-.006-.734l-.044-.783-.091-.877-.046-.44v-.013.014l-.005-.052-.009-.105-.013-.21a4 4 0 0 1 .024-.437 3.16 3.16 0 0 1 .659-1.55 5.089 5.089 0 0 1 2-1.439 15.03 15.03 0 0 1 3.762-.975c1.224-.179 2.433-.279 3.637-.341s2.4-.085 3.6-.08 2.379.035 3.589.1l.84.01.895.023q.894.029 1.785.078c1.19.065 2.378.164 3.567.286s2.378.289 3.563.527c.594.118 1.186.26 1.776.431a11.456 11.456 0 0 1 1.766.648 4.4 4.4 0 0 1 1.655 1.246 2.31 2.31 0 0 1 .455 1.133 3 3 0 0 1 .008.348l-.028.257-.062.428-.124.857c-.033.284-.057.565-.083.848s-.017.552-.027.828a4.324 4.324 0 0 0 .079.77c.018.116.062.276.094.416a4.924 4.924 0 0 1 .085.539l.022.469c.011.111.02.222.026.335a10 10 0 0 0 .6 1.544 3.862 3.862 0 0 1 .239 1.028l.026.281-.013.221-.013.22-.007.11v.055l-.008.079v.027l-.247 1.747v-.177c0-.015.024.076.053.1a.157.157 0 0 0 .043.053.1.1 0 0 0 .048.041c.039.036.058.023.068.045 0 0 0 .006.008.009h.043l.086.009.087.009h.065-.037a1.133 1.133 0 0 1 .67.247 1.7 1.7 0 0 1 .36.4 2.377 2.377 0 0 1 .337.86 2.538 2.538 0 0 1-.292 1.754 2.919 2.919 0 0 1-1.29 1.151 4.7 4.7 0 0 1-.777.288c-.121.029-.206.054-.357.087l-.339.075c-.218.049-.464.1-.625.149a.124.124 0 0 0-.034.013s-.013 0 0 0a.268.268 0 0 0 .064-.036.665.665 0 0 0 .1-.091.573.573 0 0 0 .1-.158.587.587 0 0 0 .047-.325.658.658 0 0 0-.05-.177.562.562 0 0 0-.069-.11l-.018-.023c-.016-.017-.029-.028-.019-.02.029.022.165.118.269.2a2.749 2.749 0 0 1 .952 1.534 4.337 4.337 0 0 1 .023 1.66 8.424 8.424 0 0 1-.385 1.479 5.218 5.218 0 0 1-.344.759 1.855 1.855 0 0 1-.84.814 1.318 1.318 0 0 1-.867.057 1.578 1.578 0 0 1-.332-.138l-.112-.065s-.029-.017-.017-.009l.034.02a.818.818 0 0 0 .273.076c-.128.226 1.058-.408.84-.585a.715.715 0 0 0 .02-.31.283.283 0 0 0-.01-.059l.015.036.058.144.131.32c.176.427.351.912.516 1.209a9.009 9.009 0 0 0 1.581 1.956 18.326 18.326 0 0 1 1.9 2.253 17.485 17.485 0 0 1 2.34 5.455c.109.473.252.947.332 1.422l.258 1.426c.089.475.129.962.19 1.444s.126.98.151 1.437l.1 1.388.048.694.037.723.147 2.763.293 5.548c.083 1.853.172 3.71.227 5.568s.1 3.719.127 5.582.02 3.728-.024 5.595-.108 3.735-.211 5.6a93.579 93.579 0 0 1-1.265 11.194 35.737 35.737 0 0 1-1.423 5.52 14.622 14.622 0 0 1-1.231 2.642 5.581 5.581 0 0 1-2.153 2.154l-.051.027-.028.007-2.056.533c-.682.186-1.381.308-2.069.464-.346.071-.688.158-1.039.207l-1.044.175c-.348.056-.694.127-1.044.171l-1.05.13-1.05.127-1.052.094c-.351.028-.7.069-1.052.087l-1.054.054c-.351.017-.7.044-1.054.05l-1.056.031c-.725.027-1.425.018-2.127.027z" class="cls-1" transform="translate(-549.017 -968.276)"/>
            <path id="Path_710" d="M571.131 1007.09l.266.041.75.1 1.165.144c.449.054.956.1 1.509.161s1.153.092 1.783.159c.634.033 1.3.094 1.99.123.345.016.7.034 1.051.052l1.077.028c.724.035 1.46.026 2.2.023.736.024 1.472-.023 2.2-.031s1.436-.063 2.127-.093 1.355-.1 1.989-.14 1.23-.11 1.783-.165 1.064-.09 1.511-.154.841-.107 1.165-.146c.649-.075 1.025-.106 1.025-.106s-.352.126-.975.33c-.312.1-.691.224-1.13.353s-.941.244-1.488.374-1.143.275-1.782.364-1.307.238-2.009.3l-1.068.108c-.362.039-.727.077-1.1.085-.74.021-1.491.085-2.244.071s-1.5-.016-2.244-.064c-.74-.025-1.465-.108-2.166-.182-.7-.058-1.373-.19-2.012-.28-.636-.117-1.236-.224-1.784-.359l-.787-.185-.7-.2c-.441-.118-.819-.251-1.131-.351-.627-.208-.971-.36-.971-.36z" class="cls-1" transform="translate(-559.654 -986.946)"/>
            <path id="Path_711" d="M571.131 1000.152s.366.075 1.008.182c.322.05.711.116 1.159.179s.953.131 1.505.2 1.153.117 1.784.192c.635.043 1.3.115 1.995.149l1.054.061 1.081.036c.727.038 1.466.031 2.2.031.739.022 1.477-.027 2.2-.038s1.441-.076 2.134-.109 1.358-.119 1.992-.167 1.231-.131 1.783-.2 1.062-.115 1.508-.191l1.159-.181 1.016-.144-.983.293-1.136.32c-.44.125-.945.217-1.493.336s-1.143.251-1.782.331-1.306.216-2.006.271l-1.065.1c-.36.035-.725.071-1.094.078-.737.019-1.486.079-2.235.064s-1.5-.011-2.237-.058c-.737-.024-1.46-.1-2.16-.164-.7-.052-1.371-.173-2.009-.254-.635-.108-1.235-.2-1.784-.325l-.787-.168-.7-.175c-.443-.107-.823-.227-1.137-.317-.622-.196-.97-.332-.97-.332z" class="cls-1" transform="translate(-559.654 -983.609)"/>
            <path id="Path_712" d="M571.131 996.9s.366.075 1.008.182c.322.05.711.116 1.159.179s.953.131 1.505.2 1.153.117 1.784.192c.635.043 1.3.115 1.995.148l1.054.062 1.081.035c.727.038 1.466.031 2.2.031.739.023 1.477-.027 2.2-.038s1.441-.075 2.134-.109 1.358-.119 1.992-.167 1.231-.131 1.783-.2 1.062-.115 1.508-.191l1.159-.181 1.016-.144-.983.293-1.136.319c-.44.125-.945.217-1.493.337s-1.143.251-1.782.331-1.306.216-2.006.271l-1.065.1c-.36.035-.725.071-1.094.078-.737.019-1.486.08-2.235.064s-1.5-.011-2.237-.058c-.737-.024-1.46-.1-2.16-.164-.7-.053-1.371-.173-2.009-.254-.635-.108-1.235-.2-1.784-.325l-.787-.168-.7-.176c-.443-.106-.823-.227-1.137-.317-.622-.194-.97-.33-.97-.33z" class="cls-1" transform="translate(-559.654 -982.044)"/>
            <path id="Path_713" d="M558.6 1072.719l1.589.176 1.815.177c.7.068 1.487.129 2.346.194.428.039.874.074 1.338.1l1.428.1 1.509.08.778.047.8.028 1.625.069 1.667.035c1.121.039 2.258.032 3.4.032l.853.009.851-.023c.567-.018 1.131-.021 1.692-.031 1.121-.016 2.221-.1 3.291-.123.535-.007 1.058-.056 1.572-.088l1.508-.095c.984-.037 1.908-.14 2.767-.209l1.234-.093c.394-.024.769-.044 1.116-.09.7-.083 1.31-.134 1.816-.18s.907-.069 1.18-.091l.42-.025-.39.153c-.256.093-.629.244-1.112.409s-1.066.38-1.744.6-1.456.413-2.3.634-1.773.451-2.764.611l-1.524.265c-.521.095-1.054.175-1.6.231l-1.661.179c-.562.061-1.131.124-1.707.141s-1.155.063-1.739.082l-.875.034h-.879l-1.754-.021c-.583 0-1.163-.059-1.738-.084-1.151-.054-2.28-.169-3.369-.3-.544-.059-1.08-.127-1.6-.219l-1.526-.25c-.986-.2-1.918-.377-2.768-.6l-1.217-.316-1.088-.329c-.682-.2-1.266-.422-1.747-.592-.964-.367-1.493-.627-1.493-.627z" class="cls-1" transform="translate(-553.628 -1018.514)"/>
            <path id="Path_714" d="M558.6 1143.406l1.589.175 1.815.177c.7.069 1.487.129 2.346.2.428.038.874.074 1.338.1l1.428.1 1.509.079.778.047.8.029 1.625.068 1.667.036c1.121.039 2.258.031 3.4.031l.853.01.851-.022c.567-.019 1.131-.022 1.692-.032 1.121-.015 2.221-.1 3.291-.123.535-.006 1.058-.055 1.572-.088l1.508-.095c.984-.037 1.908-.139 2.767-.21l1.234-.093c.394-.023.769-.043 1.116-.089.7-.083 1.31-.135 1.816-.181s.907-.069 1.18-.092l.42-.024-.39.153c-.256.093-.629.243-1.112.408s-1.066.38-1.744.6-1.456.413-2.3.634-1.773.451-2.764.611l-1.524.265c-.521.095-1.054.175-1.6.231l-1.661.179c-.562.06-1.131.124-1.707.141s-1.155.062-1.739.081l-.875.033h-.879l-1.754-.021c-.583.005-1.163-.058-1.738-.083-1.151-.054-2.28-.169-3.369-.3-.544-.06-1.08-.128-1.6-.22l-1.526-.25c-.986-.2-1.918-.378-2.768-.6l-1.217-.317-1.088-.329c-.682-.2-1.266-.422-1.747-.591-.964-.369-1.493-.628-1.493-.628z" class="cls-1" transform="translate(-553.628 -1052.515)"/>
            <path id="Path_715" d="M571.131 990.7s.366.075 1.008.182c.322.051.711.116 1.159.179s.953.131 1.505.2 1.153.117 1.784.193c.635.043 1.3.115 1.995.149l1.054.061 1.081.035c.727.038 1.466.031 2.2.031.739.022 1.477-.028 2.2-.038s1.441-.075 2.134-.109 1.358-.119 1.992-.167 1.231-.131 1.783-.2 1.062-.114 1.508-.19l1.159-.181 1.016-.144-.983.292-1.136.32c-.44.125-.945.218-1.493.336s-1.143.251-1.782.331-1.306.216-2.006.271l-1.065.1c-.36.034-.725.071-1.094.077-.737.02-1.486.081-2.235.064s-1.5-.01-2.237-.057c-.737-.023-1.46-.1-2.16-.164-.7-.053-1.371-.173-2.009-.254-.635-.108-1.235-.2-1.784-.325l-.787-.168-.7-.176c-.443-.106-.823-.226-1.137-.317-.622-.195-.97-.331-.97-.331z" class="cls-1" transform="translate(-559.654 -979.062)"/>
            <path id="Path_716" d="M571.131 979.57l3.744.12c.553.027 1.154.027 1.783.058.633 0 1.293.042 1.979.044.343 0 .69.013 1.042.024l1.067.008c.717.016 1.445.01 2.173.007.728.026 1.454-.028 2.171-.016l2.108-.045c.687 0 1.346-.054 1.978-.062s1.229-.044 1.784-.063 1.07-.016 1.523-.042.853-.031 1.184-.039.594 0 .773 0l.277.007-.246.121c-.162.072-.4.193-.7.32s-.678.294-1.111.462-.932.314-1.477.485-1.141.34-1.782.465-1.314.289-2.02.375c-.352.052-.713.092-1.077.136s-.734.091-1.108.1c-.747.041-1.508.1-2.268.086s-1.522-.013-2.268-.08c-.747-.042-1.48-.128-2.185-.231-.707-.085-1.384-.237-2.023-.359-.637-.152-1.238-.29-1.785-.459s-1.044-.326-1.479-.491-.808-.328-1.113-.459a9.483 9.483 0 0 1-.944-.472z" class="cls-1" transform="translate(-559.654 -973.704)"/>
            <path id="Path_717" d="M571.131 1016.223l3.744.12c.553.028 1.154.028 1.783.058.633 0 1.293.043 1.979.045.343 0 .69.013 1.042.024l1.067.008c.717.016 1.445.009 2.173.007.728.025 1.454-.028 2.171-.016l2.108-.044c.687 0 1.346-.055 1.978-.062s1.229-.044 1.784-.064 1.07-.016 1.523-.042.853-.03 1.184-.038.594 0 .773 0l.277.007-.246.121c-.162.073-.4.193-.7.32s-.678.294-1.111.463-.932.313-1.477.484-1.141.341-1.782.466-1.314.288-2.02.376c-.352.051-.713.092-1.077.135s-.734.092-1.108.105c-.747.041-1.508.1-2.268.086s-1.522-.011-2.268-.08c-.747-.042-1.48-.128-2.185-.23-.707-.085-1.384-.237-2.023-.359-.637-.153-1.238-.289-1.785-.459s-1.044-.327-1.479-.492-.808-.328-1.113-.459a9.555 9.555 0 0 1-.944-.48z" class="cls-1" transform="translate(-559.654 -991.334)"/>
            <path id="Path_718" d="M570.047 1126.461s0 .072-.007.207a3.171 3.171 0 0 1-.083.581 3.573 3.573 0 0 1-1.082 1.854 3.634 3.634 0 0 1-1.377.775 3.243 3.243 0 0 1-.461.1 2.281 2.281 0 0 1-.431.041 3.46 3.46 0 0 1-2.823-1.345 3.662 3.662 0 0 1-.758-2.209v-.166l.008-.108a2.817 2.817 0 0 1 .035-.291 3.25 3.25 0 0 1 .146-.613 3.688 3.688 0 0 1 .557-1.034 3.451 3.451 0 0 1 3.7-1.214 3.028 3.028 0 0 1 .793.338 3.532 3.532 0 0 1 1.688 2.3 3.179 3.179 0 0 1 .083.581c.01.13.012.203.012.203zm0 0l-.015-.208a2.65 2.65 0 0 0-.113-.57 2.353 2.353 0 0 0-1.905-1.629 2.152 2.152 0 0 0-.606 0 2.219 2.219 0 0 0-1.155.475 2.515 2.515 0 0 0-.706.9 3.046 3.046 0 0 0-.171.51c-.01.089-.036.181-.036.23a.567.567 0 0 0-.013.138V1126.465a2.967 2.967 0 0 0 .054.526 3.109 3.109 0 0 0 .17.513 2.5 2.5 0 0 0 .707.9 2.682 2.682 0 0 0 .509.309 1.4 1.4 0 0 0 .337.106 1.762 1.762 0 0 0 .29.06 2.328 2.328 0 0 0 1.221-.175 2.418 2.418 0 0 0 1.313-1.464 2.582 2.582 0 0 0 .113-.571z" class="cls-1" transform="translate(-555.755 -1042.651)"/>
            <path id="Path_719" d="M583.648 1114.175s0 .072-.006.206a3.171 3.171 0 0 1-.083.576 3.547 3.547 0 0 1-1.072 1.842 3.614 3.614 0 0 1-1.367.771 3.268 3.268 0 0 1-.459.1 2.244 2.244 0 0 1-.429.042 3.445 3.445 0 0 1-2.807-1.336 3.645 3.645 0 0 1-.555-1.028 3.146 3.146 0 0 1-.143-.577 2.281 2.281 0 0 1-.037-.3l-.01-.149v-.206a4.269 4.269 0 0 1 .048-.5 3.164 3.164 0 0 1 .146-.609 3.648 3.648 0 0 1 .554-1.029 3.426 3.426 0 0 1 3.676-1.2 3.014 3.014 0 0 1 .787.336 3.519 3.519 0 0 1 1.674 2.284 3.212 3.212 0 0 1 .083.577c-.003.125 0 .2 0 .2zm0 0l-.014-.2a2.623 2.623 0 0 0-.113-.566 2.327 2.327 0 0 0-1.891-1.615 2.132 2.132 0 0 0-.6 0 2.193 2.193 0 0 0-1.144.473 2.511 2.511 0 0 0-.7.889 3.165 3.165 0 0 0-.168.505c-.01.088-.035.178-.036.227a2.843 2.843 0 0 0-.021.351.517.517 0 1 1 0-.055v.127a.685.685 0 0 0 .011.13c.007.088.028.171.038.259a3.1 3.1 0 0 0 .168.506 2.472 2.472 0 0 0 .7.894 2.667 2.667 0 0 0 .5.308 1.361 1.361 0 0 0 .334.106 1.778 1.778 0 0 0 .286.06 2.31 2.31 0 0 0 1.212-.172 2.39 2.39 0 0 0 1.3-1.451 2.646 2.646 0 0 0 .113-.567c.02-.137.025-.209.025-.209z" class="cls-1" transform="translate(-562.319 -1036.752)"/>
            <path id="Path_720" d="M571.148 1106.342s0 .072-.006.206a3.172 3.172 0 0 1-.083.576 3.547 3.547 0 0 1-1.072 1.842 3.614 3.614 0 0 1-1.367.771 3.249 3.249 0 0 1-.459.1 2.235 2.235 0 0 1-.429.042 3.444 3.444 0 0 1-2.807-1.336 3.648 3.648 0 0 1-.555-1.027 3.152 3.152 0 0 1-.143-.577 2.3 2.3 0 0 1-.037-.3l-.01-.149v-.206a4.271 4.271 0 0 1 .048-.5 3.169 3.169 0 0 1 .146-.609 3.646 3.646 0 0 1 .554-1.029 3.426 3.426 0 0 1 3.676-1.2 3.019 3.019 0 0 1 .787.336 3.519 3.519 0 0 1 1.674 2.284 3.213 3.213 0 0 1 .083.577c-.003.127 0 .199 0 .199zm0 0l-.015-.2a2.609 2.609 0 0 0-.113-.566 2.329 2.329 0 0 0-1.891-1.615 2.135 2.135 0 0 0-.6 0 2.189 2.189 0 0 0-1.144.473 2.509 2.509 0 0 0-.7.89 3.146 3.146 0 0 0-.168.5c-.01.088-.035.179-.036.227a2.842 2.842 0 0 0-.021.35.485.485 0 1 1 0-.054v.127a.685.685 0 0 0 .011.13c.007.088.028.171.038.259a3.1 3.1 0 0 0 .168.506 2.471 2.471 0 0 0 .7.894 2.66 2.66 0 0 0 .5.308 1.367 1.367 0 0 0 .334.106 1.778 1.778 0 0 0 .286.06 2.309 2.309 0 0 0 1.212-.172 2.393 2.393 0 0 0 1.3-1.451 2.626 2.626 0 0 0 .113-.566c.021-.134.026-.206.026-.206z" class="cls-1" transform="translate(-556.307 -1032.985)"/>
            <path id="Path_721" d="M574.017 1088.916s0 .085-.008.243a3.575 3.575 0 0 1-.1.679 4.064 4.064 0 0 1-1.288 2.14 4.155 4.155 0 0 1-1.6.857c-.081.024-.164.036-.248.054a1.76 1.76 0 0 1-.278.044 2.775 2.775 0 0 1-.5.036 3.969 3.969 0 0 1-1.147-.165 4.013 4.013 0 0 1-2.023-1.4 4.185 4.185 0 0 1-.62-1.166 3.657 3.657 0 0 1-.16-.653 2.6 2.6 0 0 1-.042-.333l-.011-.168v-.226a4.788 4.788 0 0 1 .054-.581 3.739 3.739 0 0 1 .162-.685 4.052 4.052 0 0 1 1.545-2.047 4.105 4.105 0 0 1 1.1-.524 4 4 0 0 1 2.151-.032 3.614 3.614 0 0 1 .913.367 4.153 4.153 0 0 1 .711.5 4.075 4.075 0 0 1 1.286 2.142 3.575 3.575 0 0 1 .1.68c0 .154.003.238.003.238zm0 0l-.017-.242a3.1 3.1 0 0 0-.13-.67 2.9 2.9 0 0 0-1.519-1.747 2.931 2.931 0 0 0-.694-.221 2.7 2.7 0 0 0-.726-.031 2.75 2.75 0 0 0-1.417.515 3.027 3.027 0 0 0-.922 1.08 3.474 3.474 0 0 0-.233.643c-.017.113-.049.229-.052.3a3.479 3.479 0 0 0-.028.428v-.052V1089.084a.913.913 0 0 0 .015.168c.009.114.038.222.055.335a3.532 3.532 0 0 0 .232.645 3.012 3.012 0 0 0 .923 1.084 3.1 3.1 0 0 0 .64.347 1.945 1.945 0 0 0 .4.112 2.629 2.629 0 0 0 .354.057 2.854 2.854 0 0 0 1.445-.256 2.916 2.916 0 0 0 1.518-1.75 2 2 0 0 0 .092-.381 2.051 2.051 0 0 0 .038-.289c.02-.156.026-.24.026-.24z" class="cls-1" transform="translate(-557.179 -1024.352)"/>
            <path id="Path_722" d="M600.684 1126.594s0 .085-.008.243a3.59 3.59 0 0 1-.1.68 4.067 4.067 0 0 1-1.288 2.14 4.145 4.145 0 0 1-1.6.857c-.081.025-.164.036-.248.055a1.806 1.806 0 0 1-.278.044 2.764 2.764 0 0 1-.5.036 3.973 3.973 0 0 1-1.147-.165 4.014 4.014 0 0 1-2.023-1.4 4.173 4.173 0 0 1-.62-1.166 3.654 3.654 0 0 1-.16-.652 2.6 2.6 0 0 1-.042-.334l-.011-.168v-.226a4.789 4.789 0 0 1 .055-.58 3.712 3.712 0 0 1 .162-.685 4.056 4.056 0 0 1 1.545-2.048 4.111 4.111 0 0 1 1.1-.524 3.994 3.994 0 0 1 2.151-.032 3.6 3.6 0 0 1 .913.367 4.152 4.152 0 0 1 .711.495 4.076 4.076 0 0 1 1.286 2.142 3.586 3.586 0 0 1 .1.68c-.001.157.002.241.002.241zm0 0l-.017-.241a3.1 3.1 0 0 0-.13-.67 2.864 2.864 0 0 0-.49-.926 2.9 2.9 0 0 0-1.029-.822 2.957 2.957 0 0 0-.694-.22 2.71 2.71 0 0 0-.726-.031 2.749 2.749 0 0 0-1.417.515 3.031 3.031 0 0 0-.922 1.08 3.489 3.489 0 0 0-.233.644c-.017.112-.049.228-.052.3a3.489 3.489 0 0 0-.028.428v-.053V1126.763a.923.923 0 0 0 .015.168c.009.114.038.222.055.334a3.55 3.55 0 0 0 .232.646 3.011 3.011 0 0 0 .923 1.084 3.076 3.076 0 0 0 .64.347 1.9 1.9 0 0 0 .4.112 2.648 2.648 0 0 0 .354.057 2.848 2.848 0 0 0 1.445-.256 2.915 2.915 0 0 0 1.518-1.75 2 2 0 0 0 .092-.381 2.042 2.042 0 0 0 .038-.289c.02-.155.026-.241.026-.241z" class="cls-1" transform="translate(-570.006 -1042.476)"/>
        </g>
    </g>
</svg>
