<svg xmlns="http://www.w3.org/2000/svg" width="354.489" height="356.073" viewBox="0 0 354.489 356.073">
    <defs>
        <style>
            .cls-2{fill:none;stroke:#424d37;stroke-linecap:round;stroke-linejoin:round;stroke-width:3px}
        </style>
    </defs>
    <g id="body_Icon" opacity="0.07" transform="translate(1.5 1.5)">
        <path id="Path_683" d="M261.331 319.514a51.406 51.406 0 1 1-102.81 0" class="cls-2" transform="translate(34.025 -319.514)"/>
        <path id="Line_5" d="M0 7.655L0 0" class="cls-2" transform="translate(175.586 174.676)"/>
        <path id="Path_684" d="M173 348.425c6.254 24.717 9.951 50.138 9.951 75.407a514.755 514.755 0 0 1-2.84 55.037" class="cls-2" transform="translate(130.399 -127.12)"/>
        <path id="Path_685" d="M177.121 324.807a218.55 218.55 0 0 0-6.376 21.632 86.648 86.648 0 0 0-1.738 29.708" class="cls-2" transform="translate(100.094 -284.291)"/>
        <path id="Path_686" d="M144.607 350.514a297.225 297.225 0 0 0-6.3 59.416 516.754 516.754 0 0 0 2.84 55.037" class="cls-2" transform="translate(-100.493 -113.218)"/>
        <path id="Path_687" d="M143.029 324.807a194.3 194.3 0 0 1 10.518 46.778l-.038 4.4" class="cls-2" transform="translate(-69.069 -284.291)"/>
        <path id="Path_688" d="M306.752 334.493a84.155 84.155 0 0 1-78.369 53.583c-.084 0-.161.023-.237.023v-38.136l-68.892 68.892 68.892 68.892V449.29c.084 0 .153.023.237.023a84.054 84.054 0 0 0 78.369-114.82z" class="cls-2" transform="translate(38.903 -219.833)"/>
        <path id="Path_689" d="M139.192 484.748a84.173 84.173 0 0 1 78.377-53.583c.084 0 .153-.031.237-.031v38.143l68.894-68.892-68.892-68.892v38.45c-.084 0-.153-.015-.237-.015a84.071 84.071 0 0 0-78.377 114.82z" class="cls-2" transform="translate(-133.367 -239.797)"/>
        <path id="Path_690" d="M412.649 358.6c-35.6 11.658-82.074 18.723-132.916 18.723-54.953 0-104.793-8.252-141.329-21.64" class="cls-2" transform="translate(-99.847 -78.794)"/>
        <path id="Path_691" d="M243.428 319.514a51.4 51.4 0 1 1-102.8 0" class="cls-2" transform="translate(-85.067 -319.514)"/>
        <path id="Path_692" d="M138.387 361.648c8.259.475 16.794 1.156 25.513 2.051 52.136 5.351 93.632 16.787 111.743 28.5 18.1-11.712 59.408-23.148 111.552-28.5 8.719-.9 17.254-1.577 25.505-2.051" class="cls-2" transform="translate(-99.96 -39.125)"/>
    </g>
</svg>
