<svg xmlns="http://www.w3.org/2000/svg" id="Group_750" width="47.479" height="47.479" viewBox="0 0 47.479 47.479">
    <defs>
        <style>
            .cls-1{fill:#9fc975}
        </style>
    </defs>
    <path id="Path_561" d="M42.006 23.88H27.855a4.1 4.1 0 0 0-4.1 4.1v14.147a4.1 4.1 0 0 0 4.1 4.1h14.151a4.1 4.1 0 0 0 4.1-4.1V27.976a4.1 4.1 0 0 0-4.1-4.096zm-7.075 18.528a7.356 7.356 0 1 1 7.356-7.356 7.364 7.364 0 0 1-7.356 7.356zm7.592-13.19a1.74 1.74 0 1 1 1.74-1.74 1.742 1.742 0 0 1-1.74 1.739z" class="cls-1" transform="translate(-11.191 -11.248)"/>
    <path id="Path_562" d="M41.1 36.971a4.247 4.247 0 1 0 4.247 4.247 4.253 4.253 0 0 0-4.247-4.247z" class="cls-1" transform="translate(-17.357 -17.415)"/>
    <path id="Path_563" d="M23.739 0a23.739 23.739 0 1 0 23.74 23.739A23.74 23.74 0 0 0 23.739 0zm14.28 30.879a7.212 7.212 0 0 1-7.2 7.2H16.664a7.212 7.212 0 0 1-7.2-7.2V16.728a7.213 7.213 0 0 1 7.2-7.2h14.151a7.212 7.212 0 0 1 7.2 7.2z" class="cls-1"/>
</svg>
