<svg xmlns="http://www.w3.org/2000/svg" width="47" height="47" viewBox="0 0 47 47">
    <g transform="translate(0 -.379)">
        <circle cx="23.5" cy="23.5" r="23.5" fill="#9fc975" transform="translate(0 .379)"/>
        <g>
            <g>
                <path fill="#fff" d="M143.249-33a10.986 10.986 0 0 0-11 11 11.96 11.96 0 0 0 1.621 5.813l7.169 12.407a2.512 2.512 0 0 0 2.21 1.216 2.564 2.564 0 0 0 2.21-1.216l7.169-12.4a11.771 11.771 0 0 0 1.621-5.813 10.993 10.993 0 0 0-11-11.007zm0 14.249a4.025 4.025 0 0 1-4.015-4.015 4.025 4.025 0 0 1 4.015-4.015 4.025 4.025 0 0 1 4.015 4.015 4.02 4.02 0 0 1-4.015 4.015z" transform="translate(-119.249 41.379) translate(132.249 -33) translate(-132.249 33)"/>
            </g>
        </g>
    </g>
</svg>
