<svg xmlns="http://www.w3.org/2000/svg" width="196.462" height="59.097" viewBox="0 0 196.462 59.097">
    <defs>
        <style>
            .cls-4{font-size:30px;font-family:ArialMT,Arial;fill:#555556}
        </style>
    </defs>
    <g id="Group_824" transform="translate(-35.008 -55.985)">
        <path id="Path_694" fill="#9fc975" d="M171.491 184.294v8.991h-1.8v-8.991zm4.054.013a8.039 8.039 0 0 0-.161 1.649h-1.5a4.909 4.909 0 0 1 .087-.9 6.762 6.762 0 0 1 .219-.868 4.338 4.338 0 0 1 .3-.707 1.32 1.32 0 0 1 .318-.42h1.05q-.08.259-.154.568t-.155.679zm6.274-.013v1.531h-.58c-.148 0-.237.051-.266.152a1.951 1.951 0 0 0-.043.485v4.3h-1.8v-3.7a1.249 1.249 0 0 1 .219-.726 1.728 1.728 0 0 1 .54-.509h-1.735v-1.531zm4.368 0v6.466h-1.8v-6.466zm4.573 0v3.712h-1.8v-3.712zm7.825 5.91a1.474 1.474 0 0 1-.361.265 2.5 2.5 0 0 1-.4.17 2.449 2.449 0 0 1-.392.093 2.244 2.244 0 0 1-.324.028h-3.544v-1.525h3.131a.813.813 0 0 0 .324-.056.633.633 0 0 0 .195-.123 1 1 0 0 0 .281-.543 4.97 4.97 0 0 0 .071-.951q0-.389-.025-.667a2.535 2.535 0 0 0-.083-.479 1.046 1.046 0 0 0-.158-.334.9.9 0 0 0-.247-.226.574.574 0 0 0-.21-.08 1.146 1.146 0 0 0-.161-.019h-1.42v.927a.126.126 0 0 0 .037.093.135.135 0 0 0 .1.037h.821v1.315h-2.007a.66.66 0 0 1-.256-.055.764.764 0 0 1-.241-.161.865.865 0 0 1-.179-.256.811.811 0 0 1-.071-.349v-3.014h3.755a4.289 4.289 0 0 1 .574.04 1.557 1.557 0 0 1 .617.244 1.8 1.8 0 0 1 .5.475 2.146 2.146 0 0 1 .3.642 4.347 4.347 0 0 1 .145.818q.04.454.04 1.01 0 .383-.019.741a3.954 3.954 0 0 1-.1.692 2.694 2.694 0 0 1-.241.645 2.582 2.582 0 0 1-.452.599zM213 186.339v4.421h-1.8v-4.5a.383.383 0 0 0-.136-.34.525.525 0 0 0-.3-.093h-1.8v3.384a2.051 2.051 0 0 1-.136.815 1.185 1.185 0 0 1-.358.479 1.2 1.2 0 0 1-.5.226 2.632 2.632 0 0 1-.565.05l-1.192-.019v-1.525h.821a.18.18 0 0 0 .108-.046.175.175 0 0 0 .059-.145l-.062-4.749h4.069a2.107 2.107 0 0 1 .241.019 2.2 2.2 0 0 1 .33.068 1.912 1.912 0 0 1 .361.145 1.458 1.458 0 0 1 .34.244 1.6 1.6 0 0 1 .293.4 1.834 1.834 0 0 1 .158.423 2.553 2.553 0 0 1 .062.408q.007.186.007.335zm9.021-1.822l-.469 3.928a4.228 4.228 0 0 1-.266 1.105 1.961 1.961 0 0 1-.482.713 1.728 1.728 0 0 1-.7.383 3.361 3.361 0 0 1-.911.114h-.673v-1.519h.383a.861.861 0 0 0 .577-.173.955.955 0 0 0 .25-.636l.278-2.606h-4.236v-1.531h6.25zm-4.453 2.371v6.4h-1.8v-6.4zm8.86-2.594v3.712h-1.8v-3.712zm8.992.247l-.3 3.464q-.05.525-.13.948a2.631 2.631 0 0 1-.259.756 1.985 1.985 0 0 1-.923.883 3.64 3.64 0 0 1-1.516.272h-.2a7.918 7.918 0 0 1-1.019-.062 2.439 2.439 0 0 1-.79-.222 1.538 1.538 0 0 1-.438-.337 1.811 1.811 0 0 1-.3-.469 2.749 2.749 0 0 1-.185-.617q-.065-.349-.1-.787l-.315-4.076h1.834l.253 4.051a2.081 2.081 0 0 0 .086.531.694.694 0 0 0 .2.315.712.712 0 0 0 .33.151 2.6 2.6 0 0 0 .5.04h.061a2.317 2.317 0 0 0 .494-.046.8.8 0 0 0 .352-.167.77.77 0 0 0 .219-.334 2.079 2.079 0 0 0 .1-.546l.185-2.464h-1.449v-1.531h3.316zm8.928 1.729v4.489h-3.378v-1.531h1.587v-2.618a.882.882 0 0 0-.232-.7 1.071 1.071 0 0 0-.707-.2h-.056a1.279 1.279 0 0 0-.395.053.734.734 0 0 0-.46.411 1.963 1.963 0 0 0-.121.364l-.975 4.218h-1.828l.914-3.736-1.056-2.73h1.988l.463 1.112h.025a1.789 1.789 0 0 1 .293-.565 1.417 1.417 0 0 1 .5-.411 1.831 1.831 0 0 1 .627-.188 6.3 6.3 0 0 1 .664-.034h.037a3.737 3.737 0 0 1 .781.086 1.73 1.73 0 0 1 .738.358 1.438 1.438 0 0 1 .466.67 3.007 3.007 0 0 1 .131.953zm9.024-1.976v.247l-.3 3.4a9.188 9.188 0 0 1-.142.979 2.876 2.876 0 0 1-.272.787 1.816 1.816 0 0 1-.42.525 2.383 2.383 0 0 1-.568.358 2.87 2.87 0 0 1-.676.207 4.249 4.249 0 0 1-.75.065h-.08q-.223 0-.472-.015t-.491-.053c-.16-.025-.313-.056-.457-.093a1.727 1.727 0 0 1-.371-.136 1.964 1.964 0 0 1-.457-.327 1.823 1.823 0 0 1-.34-.46 2.767 2.767 0 0 1-.231-.63 5.591 5.591 0 0 1-.133-.843l-.352-4.014zm-4.576 1.531l.185 2.52a1.784 1.784 0 0 0 .117.587.7.7 0 0 0 .238.309.742.742 0 0 0 .343.121 4.1 4.1 0 0 0 .445.021h.062a2.108 2.108 0 0 0 .475-.046.714.714 0 0 0 .33-.17.791.791 0 0 0 .2-.337 2.282 2.282 0 0 0 .1-.54l.179-2.464zm9.065-1.531v6.466h-1.8v-6.466zm9.069.222l-.469 3.928a4.229 4.229 0 0 1-.266 1.105 1.962 1.962 0 0 1-.482.713 1.728 1.728 0 0 1-.7.383 3.361 3.361 0 0 1-.911.114h-.673v-1.519h.383a.86.86 0 0 0 .577-.173.955.955 0 0 0 .25-.636l.278-2.606h-4.236v-1.531h6.25zm-4.453 2.371v6.4h-1.8v-6.4zm12.349-2.371l-.543 3.928a4.444 4.444 0 0 1-.281 1.105 2.046 2.046 0 0 1-.479.713 1.68 1.68 0 0 1-.692.383 3.326 3.326 0 0 1-.908.114h-1.291v-1.519h.908a1.492 1.492 0 0 0 .371-.04.6.6 0 0 0 .429-.386 1.767 1.767 0 0 0 .089-.383l.327-2.606H269.3v-3.378h1.8v1.846h3.736zm10.512-.222v1.531h-.581c-.148 0-.237.051-.265.152a1.929 1.929 0 0 0-.043.485v4.3h-1.8v-3.7a1.249 1.249 0 0 1 .219-.726 1.728 1.728 0 0 1 .54-.509h-1.736v-1.531zm6.943 5.712a2.184 2.184 0 0 1-.719.55 2.058 2.058 0 0 1-.9.2h-3.007v-1.525h2.593a.584.584 0 0 0 .145-.022.88.88 0 0 0 .161-.058 1.349 1.349 0 0 0 .148-.084.742.742 0 0 0 .12-.1 1.69 1.69 0 0 0 .241-.312 1.4 1.4 0 0 0 .142-.33 1.994 1.994 0 0 0 .068-.361q.019-.188.019-.411a2.474 2.474 0 0 0-.043-.445 2.528 2.528 0 0 0-.127-.451 1.689 1.689 0 0 0-.216-.395 1.175 1.175 0 0 0-.306-.29 1.273 1.273 0 0 0-.253-.117.743.743 0 0 0-.235-.044h-2.458v-1.525h2.995c.087 0 .179 0 .278.01a2.322 2.322 0 0 1 .315.043 1.965 1.965 0 0 1 .343.1 1.845 1.845 0 0 1 .355.195 2.063 2.063 0 0 1 .519.5 2.8 2.8 0 0 1 .355.664 3.759 3.759 0 0 1 .2.8 6.457 6.457 0 0 1 .062.914q0 .315-.031.636a3.587 3.587 0 0 1-.121.636 3.509 3.509 0 0 1-.244.62 3.015 3.015 0 0 1-.394.603zm8.14-3.668v4.421h-1.8v-4.5a.439.439 0 0 0-.1-.343.4.4 0 0 0-.272-.09H295.3v-1.531h3.39a1.812 1.812 0 0 1 .229.019 2 2 0 0 1 .309.068 1.77 1.77 0 0 1 .343.145 1.545 1.545 0 0 1 .33.244 1.587 1.587 0 0 1 .293.4 1.815 1.815 0 0 1 .158.423 2.551 2.551 0 0 1 .062.408c.008.123.012.238.012.337zm9.034-.068v4.489h-3.384v-1.531h1.587v-2.618a.88.88 0 0 0-.232-.7 1.069 1.069 0 0 0-.707-.2h-.056a1.283 1.283 0 0 0-.4.053.733.733 0 0 0-.46.411 1.935 1.935 0 0 0-.121.364l-.976 4.218h-1.816l.914-3.736-1.056-2.73h1.989l.463 1.112h.024a1.789 1.789 0 0 1 .293-.565 1.413 1.413 0 0 1 .5-.411 1.829 1.829 0 0 1 .627-.188 6.29 6.29 0 0 1 .664-.034h.037a3.736 3.736 0 0 1 .781.086 1.732 1.732 0 0 1 .738.358 1.437 1.437 0 0 1 .466.67 3.009 3.009 0 0 1 .13.953zm8.443.068v4.421h-1.8v-4.5a.44.44 0 0 0-.1-.343.406.406 0 0 0-.272-.09h-3.57v-1.531h4.008a1.806 1.806 0 0 1 .228.019 2 2 0 0 1 .309.068 1.773 1.773 0 0 1 .343.145 1.543 1.543 0 0 1 .33.244 1.589 1.589 0 0 1 .293.4 1.833 1.833 0 0 1 .158.423 2.511 2.511 0 0 1 .061.408q.014.188.014.337zm-3.946.8v3.619h-1.8v-3.619z" transform="translate(-87.289 -78.204)"/>
        <text id="_" fill="#4a5155" font-family="ArialMT, Arial" font-size="30px" transform="translate(131.527 98.869)">
            <tspan x="0" y="0"></tspan>
        </text>
        <g id="Group_826" transform="translate(35.008 55.985)">
            <g id="Group_824-2">
                <path id="Path_693" fill="#555556" d="M83.532 65.882c1.289-5.3-3.228-8.3-7.8-8.762a26.935 26.935 0 0 0-9.952 1.3c-9.6 3.034-16.411 8.522-22.067 16.658-5.03 6.6-5.733 12.764-4.942 20 .167 7.06 5.215 11.793 12.229 11.613a17.811 17.811 0 0 0 5.715-1.057c10.135-3.727 16.85-11.214 22.042-20.3 1.83-3.2 3.357-8.094 3.334-10.655-6.359 6.131-7.711 7.266-8.195 6.646-.436-.732.862-1.057 1.565-1.6a18.769 18.769 0 0 0 4.922-4.543c3.1-4.134 1.707-9.4-3.013-11.677A15.509 15.509 0 0 0 66 63.178c-10.126 4.147-16.58 10.8-20.12 21.2-.649 2.812-1.3 8.275 1.352 10.871 2.65 2.326 5.209 2.915 7.832.613-2.25.157-3.157-.867-2.766-2.939a2.9 2.9 0 0 1 3.908-2.232c1.941.6 1.987 2.12 1.6 3.749a4.816 4.816 0 0 1-3.08 3.5c-4.886 1.982-9.951-1.278-10.693-6.94a17.851 17.851 0 0 1 1.9-10.6 37.872 37.872 0 0 1 14.925-15.6c9.468-5.079 15.546-4.514 22.674 1.087M35.008 89.248c.237-5.884 3.1-12.084 7.9-17.544A47.092 47.092 0 0 1 69.888 56.4a16.822 16.822 0 0 1 9.112.453c4.448 1.615 6.659 5.128 6.123 9.84a7.03 7.03 0 0 0 .064 2.886 21.233 21.233 0 0 1-2.308 17.311 41.85 41.85 0 0 1-28.614 20.745C43.1 110 34.967 102.4 35.008 89.248" transform="translate(-35.008 -55.985)"/>
            </g>
            <text id="rna" class="cls-4" transform="translate(49.452 42.884)">
                <tspan x="0" y="0">rna</tspan>
            </text>
            <text id="W" class="cls-4" transform="translate(104.753 42.884)">
                <tspan x="0" y="0">W</tspan>
            </text>
            <text id="eber" class="cls-4" transform="translate(135.462 42.884)">
                <tspan x="0" y="0">eber</tspan>
            </text>
        </g>
    </g>
</svg>
