<svg xmlns="http://www.w3.org/2000/svg" width="22.824" height="23.263" viewBox="0 0 22.824 23.263">
    <g>
        <g>
            <path fill="#9fc975" d="M56.683 60.406c.576-2.368-1.442-3.709-3.483-3.914a12.032 12.032 0 0 0-4.445.58 18.186 18.186 0 0 0-9.855 7.442c-2.247 2.948-2.561 5.7-2.208 8.933a5.084 5.084 0 0 0 5.463 5.187 7.956 7.956 0 0 0 2.553-.472c4.527-1.665 7.527-5.009 9.846-9.066a11.827 11.827 0 0 0 1.489-4.76c-2.843 2.739-3.443 3.246-3.663 2.969-.195-.327.385-.472.7-.714a8.384 8.384 0 0 0 2.2-2.029 3.367 3.367 0 0 0-1.346-5.216 6.928 6.928 0 0 0-5.081-.148 14.762 14.762 0 0 0-8.988 9.471c-.29 1.256-.58 3.7.6 4.856 1.184 1.039 2.327 1.3 3.5.274-1 .07-1.41-.387-1.235-1.313a1.294 1.294 0 0 1 1.746-1c.867.269.888.947.714 1.675a2.151 2.151 0 0 1-1.376 1.562 3.514 3.514 0 0 1-4.776-3.1 7.974 7.974 0 0 1 .848-4.737 16.917 16.917 0 0 1 6.667-6.968c4.23-2.269 6.945-2.016 10.129.485M35.008 70.844a13.028 13.028 0 0 1 3.53-7.837 21.036 21.036 0 0 1 12.051-6.837 7.514 7.514 0 0 1 4.072.2 3.9 3.9 0 0 1 2.735 4.4 3.14 3.14 0 0 0 .029 1.289 9.485 9.485 0 0 1-1.033 7.733 18.694 18.694 0 0 1-12.782 9.265c-4.986 1.055-8.621-2.336-8.6-8.213" transform="translate(-936.667 -1843.237) translate(936.667 1843.237) translate(-35.008 -55.985)"/>
        </g>
    </g>
</svg>
