<svg xmlns="http://www.w3.org/2000/svg" width="47" height="47" viewBox="0 0 47 47">
    <g transform="translate(0 -.379)">
        <circle cx="23.5" cy="23.5" r="23.5" fill="#9fc975" transform="translate(0 .379)"/>
        <path fill="#fff" d="M137.074 130.154a16.285 16.285 0 0 1-7.212-1.649 1.477 1.477 0 0 0-1.976.684l-1.062 2.2a20.77 20.77 0 0 1-7.661-7.661l2.2-1.062a1.477 1.477 0 0 0 .684-1.976 16.229 16.229 0 0 1-1.652-7.213A1.475 1.475 0 0 0 118.92 112h-5.446a1.476 1.476 0 0 0-1.474 1.475 25.1 25.1 0 0 0 25.074 25.074 1.475 1.475 0 0 0 1.475-1.475v-5.445a1.476 1.476 0 0 0-1.475-1.475z" transform="translate(-101.494 -101.675)"/>
    </g>
</svg>
