<svg xmlns="http://www.w3.org/2000/svg" width="99.999" height="100" viewBox="0 0 99.999 100">
    <defs>
        <style>
            .cls-1{fill:none}.cls-1,.cls-2,.cls-3{stroke:#95a5a1;stroke-width:2px}.cls-1,.cls-2{stroke-linecap:round;stroke-linejoin:round}.cls-2,.cls-3{fill:#fff}.cls-3{stroke-miterlimit:10}
        </style>
    </defs>
    <g id="Group_839" transform="translate(-1265 -1282)">
        <g id="Group_838" transform="translate(1266 1283)">
            <g id="Group_836" transform="translate(32.346 15.229)">
                <g id="Group_835">
                    <path id="Path_754" d="M2371.477 693.945v-3.356h-15.029v3.356c0 2.26-1.769 4.256-4.364 4.925-2.6.669-4.364 2.665-4.364 4.925v39.714c0 2.929 2.854 5.3 6.375 5.3h19.735c3.521 0 6.375-2.374 6.375-5.3V703.8c0-2.26-1.769-4.256-4.364-4.925-2.595-.675-4.364-2.675-4.364-4.93z" class="cls-1" transform="translate(-2347.72 -685.284)"/>
                    <path id="Path_755" d="M2434.969 641.834h-16.687a1.256 1.256 0 0 1-1.247-1.4l.486-4.071a1.255 1.255 0 0 1 1.247-1.106h15.715a1.256 1.256 0 0 1 1.246 1.106l.486 4.071a1.255 1.255 0 0 1-1.246 1.4z" class="cls-2" transform="translate(-2410.383 -635.252)"/>
                    <path id="Rectangle_27" d="M0 0H20.043V25.334H0z" class="cls-1" transform="translate(6.251 21.749)"/>
                </g>
                <path id="Line_7" d="M0 0L11.822 0" class="cls-3" transform="translate(10.218 31.341)"/>
                <path id="Line_8" d="M0 0L8.67 0" class="cls-3" transform="translate(11.795 36.555)"/>
            </g>
            <g id="Group_837">
                <path id="Path_756" d="M2059.286 476.381a49 49 0 1 0 49 49 49.055 49.055 0 0 0-49-49zm-42.538 49a42.343 42.343 0 0 1 10.283-27.686l59.941 59.941a42.5 42.5 0 0 1-70.225-32.255zm74.793 27.686l-59.941-59.941a42.5 42.5 0 0 1 59.941 59.941z" class="cls-2" transform="translate(-2010.286 -476.381)"/>
            </g>
        </g>
    </g>
</svg>
