<svg xmlns="http://www.w3.org/2000/svg" width="85.726" height="92.844" viewBox="0 0 85.726 92.844">
    <defs>
        <style>
            .cls-1{fill:none;stroke:#95a5a1;stroke-linecap:round;stroke-linejoin:round;stroke-width:3px}.cls-2{fill:#95a5a1}
        </style>
    </defs>
    <g id="Group_972" transform="translate(128.827 855.678)">
        <path id="Path_852" d="M-120.029-804.141h68.4a3.677 3.677 0 0 1 3.579 3.579l3.579 64.264a3.553 3.553 0 0 1-3.579 3.579h-75.556a3.536 3.536 0 0 1-3.579-3.579l3.579-64.264a3.664 3.664 0 0 1 3.579-3.579z" class="cls-1" transform="translate(-.134 -31.614)"/>
        <path id="Path_853" d="M-64.6-783.3a4.425 4.425 0 0 1 4.425 4.424 4.425 4.425 0 0 1-4.425 4.425 4.424 4.424 0 0 1-4.425-4.425A4.424 4.424 0 0 1-64.6-783.3z" class="cls-1" transform="translate(-36.778 -44.778)"/>
        <path id="Path_854" d="M19.707-783.3a4.425 4.425 0 0 1 4.425 4.424 4.425 4.425 0 0 1-4.425 4.425 4.424 4.424 0 0 1-4.425-4.425 4.424 4.424 0 0 1 4.425-4.424z" class="cls-1" transform="translate(-90.044 -44.778)"/>
        <path id="Path_855" d="M-25.637-825.92v-13.2A15.11 15.11 0 0 0-40.7-854.178a15.1 15.1 0 0 0-15.06 15.06v13.2" class="cls-1" transform="translate(-45.16)"/>
        <g id="Group_982" transform="translate(-103.076 -811.243)">
            <g id="Group_981">
                <g id="Group_974">
                    <g id="Group_973">
                        <path id="Path_856" d="M17.492 0a17.492 17.492 0 1 0 17.492 17.492A17.492 17.492 0 0 0 17.492 0zm0 32.485a14.993 14.993 0 1 1 14.993-14.993 14.993 14.993 0 0 1-14.993 14.993z" class="cls-2"/>
                    </g>
                </g>
                <g id="Group_976" transform="translate(8.746 12.494)">
                    <g id="Group_975">
                        <circle id="Ellipse_119" cx="2.499" cy="2.499" r="2.499" class="cls-2"/>
                    </g>
                </g>
                <g id="Group_978" transform="translate(21.24 12.494)">
                    <g id="Group_977">
                        <circle id="Ellipse_120" cx="2.499" cy="2.499" r="2.499" class="cls-2"/>
                    </g>
                </g>
                <g id="Group_980" transform="translate(12.459 21.212)">
                    <g id="Group_979">
                        <path id="Path_857" d="M180.006 290.252a1.249 1.249 0 0 0-1.749-.254q-.036.027-.07.056a5.029 5.029 0 0 1-5.932 0 1.249 1.249 0 1 0-1.634 1.89q.034.029.07.056a7.46 7.46 0 0 0 9.061 0 1.249 1.249 0 0 0 .254-1.748z" class="cls-2" transform="translate(-170.189 -289.75)"/>
                    </g>
                </g>
            </g>
        </g>
    </g>
</svg>
