<?xml version="1.0" encoding="UTF-8"?>
<svg xmlns="http://www.w3.org/2000/svg" xmlns:xlink="http://www.w3.org/1999/xlink" width="79pt" height="85pt" viewBox="0 0 79 85" version="1.1">
<g id="surface1">
<path style=" stroke:none;fill-rule:nonzero;fill:rgb(25.882353%,30.196078%,21.568627%);fill-opacity:1;" d="M 44.152344 40.292969 C 43.667969 39.804688 42.878906 39.800781 42.386719 40.28125 C 40.507812 41.578125 38.019531 41.578125 36.140625 40.28125 C 35.648438 39.808594 34.867188 39.820312 34.386719 40.304688 C 33.90625 40.789062 33.90625 41.570312 34.386719 42.054688 C 37.246094 44.304688 41.277344 44.304688 44.132812 42.054688 C 44.625 41.574219 44.632812 40.785156 44.152344 40.292969 Z M 44.152344 40.292969 "/>
<path style=" stroke:none;fill-rule:nonzero;fill:rgb(25.882353%,30.196078%,21.568627%);fill-opacity:1;" d="M 31.261719 30.609375 C 30.574219 30.609375 30.015625 31.164062 30.015625 31.851562 L 30.015625 33.183594 C 30.015625 33.871094 30.574219 34.429688 31.261719 34.429688 C 31.953125 34.429688 32.511719 33.871094 32.511719 33.183594 L 32.511719 31.851562 C 32.511719 31.164062 31.953125 30.609375 31.261719 30.609375 Z M 31.261719 30.609375 "/>
<path style=" stroke:none;fill-rule:nonzero;fill:rgb(25.882353%,30.196078%,21.568627%);fill-opacity:1;" d="M 47.261719 30.609375 C 46.574219 30.609375 46.015625 31.164062 46.015625 31.851562 L 46.015625 33.183594 C 46.015625 33.871094 46.574219 34.429688 47.261719 34.429688 C 47.953125 34.429688 48.511719 33.871094 48.511719 33.183594 L 48.511719 31.851562 C 48.511719 31.164062 47.953125 30.609375 47.261719 30.609375 Z M 47.261719 30.609375 "/>
<path style=" stroke:none;fill-rule:nonzero;fill:rgb(25.882353%,30.196078%,21.568627%);fill-opacity:1;" d="M 32.59375 26.617188 L 29.925781 26.617188 C 29.238281 26.617188 28.679688 27.171875 28.679688 27.863281 C 28.679688 28.550781 29.238281 29.105469 29.925781 29.105469 L 32.59375 29.105469 C 33.285156 29.105469 33.84375 28.550781 33.84375 27.863281 C 33.84375 27.171875 33.285156 26.617188 32.59375 26.617188 Z M 32.59375 26.617188 "/>
<path style=" stroke:none;fill-rule:nonzero;fill:rgb(25.882353%,30.196078%,21.568627%);fill-opacity:1;" d="M 48.597656 26.617188 L 45.929688 26.617188 C 45.238281 26.617188 44.679688 27.171875 44.679688 27.863281 C 44.679688 28.550781 45.238281 29.105469 45.929688 29.105469 L 48.597656 29.105469 C 49.285156 29.105469 49.84375 28.550781 49.84375 27.863281 C 49.84375 27.171875 49.285156 26.617188 48.597656 26.617188 Z M 48.597656 26.617188 "/>
<path style=" stroke:none;fill-rule:nonzero;fill:rgb(25.882353%,30.196078%,21.568627%);fill-opacity:1;" d="M 77.058594 65.132812 C 75.710938 62.414062 75.027344 59.417969 75.0625 56.382812 C 75.265625 52.804688 74.464844 49.238281 72.75 46.085938 C 72.152344 44.953125 71.664062 43.769531 71.292969 42.546875 C 70.828125 40.738281 70.621094 38.867188 70.679688 37 C 70.746094 34.605469 70.445312 32.214844 69.785156 29.910156 C 69.269531 28.285156 68.539062 26.734375 67.609375 25.304688 C 66.167969 23.140625 65.289062 20.648438 65.050781 18.0625 C 64.273438 12.554688 61.195312 7.632812 56.574219 4.519531 C 52.765625 1.773438 47.976562 0 44.375 0 C 42.851562 -0.0507812 41.347656 0.347656 40.054688 1.148438 C 39.578125 1.472656 38.953125 1.472656 38.476562 1.148438 C 37.179688 0.347656 35.675781 -0.0507812 34.152344 0 C 30.550781 0 25.761719 1.773438 21.949219 4.519531 C 17.328125 7.632812 14.246094 12.554688 13.46875 18.066406 C 13.230469 20.652344 12.351562 23.144531 10.914062 25.308594 C 9.984375 26.738281 9.253906 28.289062 8.738281 29.914062 C 8.078125 32.21875 7.773438 34.609375 7.84375 37.003906 C 7.902344 38.871094 7.695312 40.742188 7.226562 42.550781 C 6.859375 43.773438 6.371094 44.957031 5.777344 46.085938 C 4.0625 49.234375 3.257812 52.800781 3.457031 56.378906 C 3.496094 59.414062 2.8125 62.414062 1.464844 65.132812 C 0.375 67.648438 -0.660156 70.023438 0.527344 73.515625 C 1.839844 77.371094 5.695312 79.703125 7.351562 80.550781 L 7.351562 83.761719 C 7.351562 84.449219 7.910156 85.003906 8.597656 85.003906 C 9.285156 85.003906 9.84375 84.449219 9.84375 83.761719 L 9.84375 73.433594 C 9.84375 72.25 10.160156 71.085938 10.757812 70.058594 L 16.648438 75.101562 C 17.554688 75.875 18.078125 77.007812 18.078125 78.199219 L 18.078125 83.753906 C 18.078125 84.441406 18.636719 85 19.324219 85 C 20.011719 85 20.570312 84.441406 20.570312 83.753906 L 20.570312 78.199219 C 20.574219 76.28125 19.734375 74.457031 18.273438 73.210938 L 12.382812 68.171875 C 12.972656 67.699219 13.640625 67.328125 14.351562 67.078125 L 22.289062 64.28125 C 27.65625 71.304688 33.210938 76.003906 38.796875 78.253906 C 39.09375 78.375 39.429688 78.375 39.730469 78.253906 C 43.542969 76.613281 47.011719 74.269531 49.957031 71.347656 C 50.289062 71.042969 50.425781 70.585938 50.324219 70.148438 C 50.21875 69.710938 49.890625 69.363281 49.457031 69.238281 C 49.027344 69.113281 48.558594 69.230469 48.238281 69.542969 C 45.632812 72.121094 42.597656 74.222656 39.265625 75.75 C 33.367188 73.210938 28.253906 67.859375 24.765625 63.410156 L 28.121094 62.226562 C 30.75 61.296875 32.507812 58.816406 32.511719 56.035156 L 32.511719 51.792969 C 36.855469 53.484375 41.675781 53.484375 46.015625 51.792969 L 46.015625 56.035156 C 46.019531 58.816406 47.777344 61.296875 50.40625 62.226562 L 53.761719 63.410156 C 53.066406 64.300781 52.359375 65.15625 51.65625 65.972656 C 51.203125 66.488281 51.253906 67.277344 51.773438 67.730469 C 52.296875 68.183594 53.085938 68.128906 53.539062 67.609375 C 54.449219 66.558594 55.351562 65.441406 56.238281 64.28125 L 64.175781 67.078125 C 64.914062 67.339844 65.601562 67.722656 66.203125 68.21875 L 60.371094 73.210938 C 58.914062 74.457031 58.074219 76.28125 58.074219 78.199219 L 58.074219 83.753906 C 58.074219 84.441406 58.632812 85 59.320312 85 C 60.011719 85 60.570312 84.441406 60.570312 83.753906 L 60.570312 78.199219 C 60.570312 77.007812 61.089844 75.878906 61.996094 75.101562 L 67.808594 70.128906 C 68.378906 71.136719 68.679688 72.277344 68.683594 73.4375 L 68.683594 83.753906 C 68.683594 84.441406 69.242188 85 69.929688 85 C 70.617188 85 71.175781 84.441406 71.175781 83.753906 L 71.175781 80.546875 C 72.832031 79.699219 76.6875 77.371094 78 73.507812 C 79.1875 70.015625 78.148438 67.644531 77.058594 65.132812 Z M 75.636719 72.710938 C 74.738281 74.8125 73.167969 76.558594 71.171875 77.679688 L 71.171875 73.433594 C 71.167969 69.523438 68.699219 66.035156 65.003906 64.730469 L 51.234375 59.878906 C 49.605469 59.304688 48.511719 57.761719 48.511719 56.035156 L 48.511719 50.597656 C 54.28125 47.289062 57.839844 41.160156 57.847656 34.519531 L 57.847656 30.109375 L 58.121094 30.300781 C 60.800781 32.1875 62.570312 33.433594 62.910156 37.722656 C 62.960938 38.367188 63.503906 38.867188 64.152344 38.867188 L 64.253906 38.867188 C 64.941406 38.8125 65.453125 38.214844 65.402344 37.527344 C 64.96875 32.078125 62.339844 30.226562 59.558594 28.269531 C 57.1875 26.785156 55.171875 24.792969 53.660156 22.441406 C 51.777344 19.085938 48.480469 16.757812 44.683594 16.101562 C 43.507812 15.886719 42.378906 15.457031 41.359375 14.835938 C 40.828125 14.464844 40.515625 13.859375 40.515625 13.210938 L 40.515625 10.613281 C 40.523438 9.925781 39.988281 9.355469 39.300781 9.320312 C 38.964844 9.308594 38.636719 9.4375 38.394531 9.671875 C 38.152344 9.90625 38.015625 10.226562 38.015625 10.5625 L 38.015625 13.207031 C 38.019531 13.851562 37.703125 14.460938 37.175781 14.832031 C 36.152344 15.453125 35.027344 15.882812 33.847656 16.097656 C 30.054688 16.753906 26.757812 19.082031 24.871094 22.4375 C 23.363281 24.789062 21.347656 26.78125 18.972656 28.265625 C 16.191406 30.222656 13.5625 32.074219 13.132812 37.523438 C 13.089844 37.972656 13.289062 38.410156 13.660156 38.667969 C 14.03125 38.925781 14.511719 38.964844 14.917969 38.769531 C 15.324219 38.570312 15.59375 38.171875 15.621094 37.71875 C 15.960938 33.433594 17.730469 32.191406 20.410156 30.300781 C 23.054688 28.621094 25.296875 26.386719 26.988281 23.753906 C 29.480469 19.757812 31.898438 19.152344 34.457031 18.507812 C 36.214844 18.207031 37.867188 17.46875 39.261719 16.359375 C 40.65625 17.46875 42.3125 18.207031 44.070312 18.507812 C 46.628906 19.152344 49.042969 19.761719 51.535156 23.753906 C 52.570312 25.421875 53.855469 26.917969 55.347656 28.199219 L 55.347656 34.308594 C 55.414062 40.0625 52.386719 45.410156 47.417969 48.328125 C 42.449219 51.242188 36.292969 51.28125 31.289062 48.429688 C 26.28125 45.578125 23.1875 40.265625 23.179688 34.511719 L 23.179688 34.066406 C 23.1875 33.378906 22.65625 32.808594 21.96875 32.769531 C 21.632812 32.761719 21.304688 32.886719 21.0625 33.121094 C 20.820312 33.355469 20.683594 33.679688 20.683594 34.015625 L 20.683594 34.511719 C 20.691406 41.152344 24.25 47.285156 30.019531 50.589844 L 30.019531 56.027344 C 30.019531 57.757812 28.925781 59.296875 27.296875 59.875 L 13.519531 64.730469 C 9.828125 66.035156 7.355469 69.523438 7.351562 73.433594 L 7.351562 77.683594 C 5.355469 76.5625 3.785156 74.816406 2.890625 72.710938 C 2.015625 70.128906 2.707031 68.535156 3.757812 66.121094 C 5.246094 63.082031 6.003906 59.730469 5.957031 56.347656 C 5.769531 53.160156 6.480469 49.984375 8.015625 47.183594 C 8.679688 45.921875 9.222656 44.597656 9.632812 43.230469 C 10.160156 41.207031 10.398438 39.121094 10.339844 37.03125 C 10.269531 34.871094 10.535156 32.714844 11.125 30.636719 C 11.585938 29.210938 12.234375 27.847656 13.054688 26.589844 C 14.679688 24.128906 15.675781 21.300781 15.949219 18.363281 C 16.652344 13.546875 19.363281 9.25 23.410156 6.539062 C 27.292969 3.742188 31.601562 2.492188 34.152344 2.492188 C 35.1875 2.445312 36.210938 2.699219 37.097656 3.226562 C 38.410156 4.097656 40.117188 4.097656 41.429688 3.226562 C 42.316406 2.699219 43.339844 2.441406 44.375 2.492188 C 47.914062 2.492188 52.320312 4.523438 55.117188 6.539062 C 59.164062 9.25 61.875 13.542969 62.578125 18.359375 C 62.851562 21.296875 63.847656 24.125 65.472656 26.589844 C 66.296875 27.84375 66.945312 29.207031 67.402344 30.636719 C 67.992188 32.710938 68.257812 34.871094 68.1875 37.027344 C 68.128906 39.117188 68.367188 41.203125 68.894531 43.226562 C 69.304688 44.59375 69.847656 45.917969 70.511719 47.179688 C 72.046875 49.980469 72.757812 53.15625 72.570312 56.34375 C 72.527344 59.730469 73.28125 63.078125 74.773438 66.117188 C 75.820312 68.53125 76.511719 70.125 75.636719 72.710938 Z M 75.636719 72.710938 "/>
</g>
</svg>
