<svg xmlns="http://www.w3.org/2000/svg" width="62.394" height="83.248" viewBox="0 0 62.394 83.248">
    <defs>
        <style>
            .cls-1{fill:#424d37}
        </style>
    </defs>
    <g id="Group_939" transform="translate(-64.13)">
        <g id="Group_926" transform="translate(64.13)">
            <g id="Group_925">
                <path id="Path_824" d="M120.492 64.7l-13.462-4.751a4 4 0 0 1-2.665-3.766v-5.326a18.2 18.2 0 0 0 8.948-13.227h.912a4.476 4.476 0 0 0 3.707-6.987 23.436 23.436 0 0 0 .324-10.521 10.344 10.344 0 1 0-11.691-15.935 23.337 23.337 0 0 0-22.476 0A10.344 10.344 0 1 0 72.4 20.121a23.436 23.436 0 0 0 .324 10.521 4.476 4.476 0 0 0 3.707 6.987h.912a18.2 18.2 0 0 0 8.947 13.227v5.326a4 4 0 0 1-2.665 3.766L70.161 64.7a9.053 9.053 0 0 0-6.031 8.524v8.8a1.219 1.219 0 1 0 2.439 0v-8.8A6.611 6.611 0 0 1 70.973 67l8.508-3 3.411 3.412a2.674 2.674 0 0 1 .788 1.9v12.716a1.219 1.219 0 1 0 2.439 0v-9.645a25.213 25.213 0 0 0 18.415 0v.517a1.219 1.219 0 0 0 2.439 0v-3.589a2.673 2.673 0 0 1 .788-1.9L111.173 64l8.508 3a6.611 6.611 0 0 1 4.4 6.224v8.8a1.219 1.219 0 0 0 2.439 0v-8.8a9.053 9.053 0 0 0-6.028-8.524zm-5.615-62.261a7.905 7.905 0 0 1 2.776 15.307 23.475 23.475 0 0 0-9.006-12.265 7.847 7.847 0 0 1 6.23-3.042zM73 17.746a7.9 7.9 0 1 1 9.006-12.265A23.473 23.473 0 0 0 73 17.746zm6.6 17.361a1.219 1.219 0 0 0-2.439 0v.084h-.737a2.039 2.039 0 0 1 0-4.078h.977c1.285 0 1.288 0 1.562-.149a1.219 1.219 0 0 0 .636-1.078v-1.3a15.008 15.008 0 0 1 3.616-10.064 1.219 1.219 0 1 0-1.851-1.588 17.383 17.383 0 0 0-4.2 11.653v.084h-.736a4.454 4.454 0 0 0-1.6.3 20.938 20.938 0 1 1 40.995 0 4.454 4.454 0 0 0-1.6-.3h-.735V25.79h.084a1.219 1.219 0 0 0 0-2.439 40.862 40.862 0 0 1-21.982-6.076 30.007 30.007 0 0 1-7.19-6.1 1.219 1.219 0 0 0-1.934 1.486 31.679 31.679 0 0 0 7.721 6.614 42.833 42.833 0 0 0 20.864 6.45v4.17a1.218 1.218 0 0 0 .591 1.046c.29.174.293.173 1.605.174h.977a2.039 2.039 0 0 1 0 4.078h-.737v-.084a1.219 1.219 0 1 0-2.439 0 15.724 15.724 0 0 1-31.449 0zm26.434 30.577a5.1 5.1 0 0 0-1.5 3.627v.419a22.653 22.653 0 0 1-18.415 0v-.419a5.1 5.1 0 0 0-1.5-3.627L82.03 63.1l2.4-.848a6.443 6.443 0 0 0 4.292-6.066v-4.158a18.163 18.163 0 0 0 13.2 0v4.154a6.443 6.443 0 0 0 4.292 6.066l2.4.848z" class="cls-1" transform="translate(-64.13)"/>
            </g>
        </g>
        <g id="Group_928" transform="translate(90.197 40.404)">
            <g id="Group_927">
                <path id="Path_825" d="M234.36 248.863a1.219 1.219 0 0 0-1.724-.012 5.374 5.374 0 0 1-6.107 0 1.219 1.219 0 0 0-1.713 1.736 7.693 7.693 0 0 0 9.533 0 1.219 1.219 0 0 0 .011-1.724z" class="cls-1" transform="translate(-224.452 -248.5)"/>
            </g>
        </g>
        <g id="Group_930" transform="translate(104.534 76.899)">
            <g id="Group_929">
                <path id="Path_826" d="M313.848 472.952a1.219 1.219 0 0 0-1.219 1.219v3.91a1.219 1.219 0 0 0 2.439 0v-3.91a1.22 1.22 0 0 0-1.22-1.219z" class="cls-1" transform="translate(-312.629 -472.952)"/>
            </g>
        </g>
        <g id="Group_932" transform="translate(86.287 29.977)">
            <g id="Group_931">
                <path id="Path_827" d="M201.622 184.371a1.219 1.219 0 0 0-1.219 1.219v1.3a1.219 1.219 0 0 0 2.439 0v-1.3a1.219 1.219 0 0 0-1.22-1.219z" class="cls-1" transform="translate(-200.403 -184.371)"/>
            </g>
        </g>
        <g id="Group_934" transform="translate(101.927 29.977)">
            <g id="Group_933">
                <path id="Path_828" d="M297.815 184.371a1.219 1.219 0 0 0-1.219 1.219v1.3a1.219 1.219 0 0 0 2.439 0v-1.3a1.219 1.219 0 0 0-1.22-1.219z" class="cls-1" transform="translate(-296.596 -184.371)"/>
            </g>
        </g>
        <g id="Group_936" transform="translate(84.984 26.035)">
            <g id="Group_935">
                <path id="Path_829" d="M194.94 160.158l-1.3-.032a1.219 1.219 0 0 0-.06 2.438l1.3.032h.03a1.219 1.219 0 0 0 .029-2.439z" class="cls-1" transform="translate(-192.388 -160.126)"/>
            </g>
        </g>
        <g id="Group_938" transform="translate(101.927 26.036)">
            <g id="Group_937">
                <path id="Path_830" d="M299.09 160.128l-1.3.032a1.219 1.219 0 0 0 .029 2.438h.031l1.3-.032a1.219 1.219 0 1 0-.06-2.438z" class="cls-1" transform="translate(-296.597 -160.127)"/>
            </g>
        </g>
    </g>
</svg>
