<?xml version="1.0" encoding="UTF-8"?>
<svg xmlns="http://www.w3.org/2000/svg" xmlns:xlink="http://www.w3.org/1999/xlink" width="65pt" height="83pt" viewBox="0 0 65 83" version="1.1">
<g id="surface1">
<path style=" stroke:none;fill-rule:nonzero;fill:rgb(25.882353%,30.196078%,21.568627%);fill-opacity:1;" d="M 58.511719 59.65625 L 47.824219 56.511719 L 45.925781 52.722656 C 45.359375 51.585938 44.035156 51.050781 42.839844 51.472656 L 42.839844 47.421875 C 47.003906 44.53125 49.773438 40.039062 50.484375 35.019531 L 51.207031 35.019531 C 53.550781 35.054688 55.550781 33.324219 55.855469 31 C 56.042969 29.152344 55.070312 27.375 53.410156 26.542969 L 54.847656 17.914062 C 55.328125 15.101562 53.890625 12.3125 51.320312 11.070312 C 52.460938 8.167969 52.210938 4.578125 50.5625 0.738281 C 50.40625 0.363281 50.070312 0.0976562 49.675781 0.0195312 C 49.277344 -0.0585938 48.867188 0.0703125 48.582031 0.355469 C 48.558594 0.378906 46.167969 2.605469 40.320312 2.605469 L 28.585938 2.605469 C 23.632812 2.609375 19.21875 5.746094 17.585938 10.425781 L 16.488281 10.425781 C 14.597656 10.425781 12.800781 11.257812 11.578125 12.699219 C 10.355469 14.140625 9.832031 16.050781 10.140625 17.914062 L 11.597656 26.601562 C 9.753906 27.523438 8.785156 29.597656 9.261719 31.605469 C 9.738281 33.613281 11.535156 35.027344 13.597656 35.023438 L 14.507812 35.023438 C 15.21875 40.042969 17.988281 44.535156 22.15625 47.425781 L 22.15625 51.472656 C 20.957031 51.050781 19.632812 51.589844 19.066406 52.722656 L 17.167969 56.515625 L 6.488281 59.65625 C 2.648438 60.800781 0.015625 64.324219 -0.00390625 68.328125 L -0.00390625 82.027344 C -0.00390625 82.703125 0.542969 83.246094 1.21875 83.246094 C 1.890625 83.246094 2.4375 82.703125 2.4375 82.027344 L 2.4375 68.328125 C 2.449219 65.40625 4.375 62.835938 7.175781 62 L 11.730469 60.660156 L 11.730469 82.027344 C 11.730469 82.703125 12.277344 83.246094 12.949219 83.246094 C 13.621094 83.246094 14.167969 82.703125 14.167969 82.027344 L 14.167969 59.941406 L 16.941406 59.125 L 16.941406 82.023438 C 16.941406 82.699219 17.488281 83.242188 18.164062 83.242188 C 18.835938 83.242188 19.382812 82.699219 19.382812 82.023438 L 19.382812 59.914062 L 24.445312 64.253906 C 25.132812 64.851562 26.015625 65.179688 26.925781 65.175781 C 27.046875 65.175781 27.167969 65.171875 27.292969 65.160156 C 28.328125 65.066406 29.277344 64.554688 29.921875 63.742188 L 32.5 60.519531 L 35.078125 63.738281 C 35.722656 64.550781 36.671875 65.066406 37.707031 65.160156 C 37.828125 65.171875 37.953125 65.175781 38.074219 65.175781 C 38.984375 65.175781 39.867188 64.847656 40.554688 64.253906 L 46.929688 58.789062 L 50.828125 59.9375 L 50.828125 82.027344 C 50.828125 82.703125 51.375 83.246094 52.046875 83.246094 C 52.722656 83.246094 53.269531 82.703125 53.269531 82.027344 L 53.269531 60.65625 L 57.824219 62 C 60.625 62.835938 62.550781 65.410156 62.5625 68.332031 L 62.5625 82.03125 C 62.5625 82.707031 63.105469 83.253906 63.78125 83.253906 C 64.453125 83.253906 65 82.707031 65 82.03125 L 65 68.332031 C 64.984375 64.328125 62.351562 60.800781 58.511719 59.65625 Z M 50.132812 13.210938 C 51.796875 13.945312 52.75 15.71875 52.441406 17.515625 L 51.015625 26.066406 L 49.441406 26.066406 C 48.675781 26.066406 48.058594 25.445312 48.054688 24.679688 L 48.054688 15.195312 C 48.851562 14.648438 49.550781 13.980469 50.132812 13.210938 Z M 13.449219 14.277344 C 14.207031 13.382812 15.324219 12.863281 16.496094 12.867188 L 17.027344 12.867188 C 16.972656 13.328125 16.945312 13.789062 16.941406 14.253906 L 16.941406 24.679688 C 16.941406 25.445312 16.320312 26.066406 15.554688 26.066406 L 13.988281 26.066406 L 12.558594 17.515625 C 12.363281 16.359375 12.691406 15.171875 13.449219 14.277344 Z M 16.777344 32.5 C 16.777344 31.828125 16.230469 31.28125 15.554688 31.28125 C 14.882812 31.28125 14.335938 31.828125 14.335938 32.5 L 14.335938 32.585938 L 13.601562 32.585938 C 13.023438 32.582031 12.472656 32.339844 12.085938 31.910156 C 11.699219 31.480469 11.511719 30.90625 11.574219 30.328125 C 11.742188 29.25 12.695312 28.46875 13.785156 28.507812 L 15.554688 28.507812 C 17.671875 28.507812 19.386719 26.792969 19.386719 24.679688 L 19.386719 14.253906 C 19.390625 9.171875 23.507812 5.054688 28.585938 5.046875 L 40.316406 5.046875 C 43.285156 5.148438 46.226562 4.484375 48.859375 3.109375 C 49.957031 6.386719 49.804688 9.300781 48.410156 11.414062 C 47.191406 13.25 45.128906 14.347656 42.925781 14.335938 L 23.378906 14.335938 C 22.703125 14.335938 22.15625 14.882812 22.15625 15.554688 C 22.15625 16.230469 22.703125 16.773438 23.378906 16.773438 L 42.925781 16.773438 C 43.839844 16.777344 44.746094 16.640625 45.617188 16.375 L 45.617188 24.679688 C 45.621094 26.792969 47.332031 28.503906 49.445312 28.507812 L 51.398438 28.507812 C 51.976562 28.507812 52.527344 28.75 52.914062 29.179688 C 53.300781 29.613281 53.488281 30.183594 53.425781 30.761719 C 53.257812 31.839844 52.304688 32.625 51.214844 32.585938 L 50.664062 32.585938 L 50.664062 32.511719 C 50.664062 31.839844 50.117188 31.292969 49.445312 31.292969 C 48.769531 31.292969 48.226562 31.839844 48.226562 32.511719 C 48.222656 41.195312 41.179688 48.234375 32.496094 48.230469 C 23.808594 48.226562 16.773438 41.183594 16.777344 32.5 Z M 28.019531 62.21875 C 27.785156 62.511719 27.441406 62.695312 27.066406 62.730469 C 26.691406 62.765625 26.320312 62.648438 26.03125 62.402344 L 19.679688 56.957031 L 21.253906 53.8125 C 21.261719 53.792969 21.28125 53.777344 21.300781 53.769531 C 21.324219 53.765625 21.347656 53.765625 21.367188 53.777344 L 30.648438 58.933594 Z M 24.597656 52.78125 L 24.597656 48.851562 C 29.589844 51.269531 35.410156 51.269531 40.402344 48.851562 L 40.402344 52.78125 L 32.503906 57.171875 Z M 38.96875 62.398438 C 38.679688 62.644531 38.308594 62.761719 37.933594 62.726562 C 37.558594 62.691406 37.214844 62.507812 36.980469 62.214844 L 34.355469 58.929688 L 43.632812 53.773438 C 43.652344 53.761719 43.675781 53.757812 43.699219 53.765625 C 43.722656 53.773438 43.738281 53.789062 43.75 53.808594 L 45.320312 56.953125 Z M 38.96875 62.398438 "/>
<path style=" stroke:none;fill-rule:nonzero;fill:rgb(25.882353%,30.196078%,21.568627%);fill-opacity:1;" d="M 46.835938 62.5625 C 46.164062 62.5625 45.617188 63.105469 45.617188 63.78125 L 45.617188 82.027344 C 45.617188 82.699219 46.164062 83.246094 46.835938 83.246094 C 47.511719 83.246094 48.054688 82.699219 48.054688 82.027344 L 48.054688 63.78125 C 48.054688 63.105469 47.507812 62.558594 46.835938 62.5625 Z M 46.835938 62.5625 "/>
<path style=" stroke:none;fill-rule:nonzero;fill:rgb(25.882353%,30.196078%,21.568627%);fill-opacity:1;" d="M 32.511719 65.164062 L 32.5 65.164062 C 31.824219 65.167969 31.277344 65.714844 31.28125 66.390625 C 31.28125 67.066406 31.832031 67.613281 32.507812 67.613281 C 33.183594 67.613281 33.730469 67.066406 33.734375 66.390625 C 33.734375 65.714844 33.1875 65.167969 32.511719 65.164062 Z M 32.511719 65.164062 "/>
<path style=" stroke:none;fill-rule:nonzero;fill:rgb(25.882353%,30.196078%,21.568627%);fill-opacity:1;" d="M 32.511719 80.808594 L 32.5 80.808594 C 31.824219 80.8125 31.277344 81.363281 31.28125 82.039062 C 31.28125 82.714844 31.832031 83.261719 32.507812 83.261719 C 33.183594 83.261719 33.730469 82.714844 33.734375 82.039062 C 33.734375 81.363281 33.1875 80.8125 32.511719 80.808594 Z M 32.511719 80.808594 "/>
<path style=" stroke:none;fill-rule:nonzero;fill:rgb(25.882353%,30.196078%,21.568627%);fill-opacity:1;" d="M 32.511719 72.988281 L 32.5 72.988281 C 31.824219 72.992188 31.277344 73.539062 31.28125 74.214844 C 31.28125 74.890625 31.832031 75.4375 32.507812 75.4375 C 33.183594 75.4375 33.730469 74.890625 33.734375 74.214844 C 33.734375 73.539062 33.1875 72.992188 32.511719 72.988281 Z M 32.511719 72.988281 "/>
<path style=" stroke:none;fill-rule:nonzero;fill:rgb(25.882353%,30.196078%,21.568627%);fill-opacity:1;" d="M 24.679688 27.484375 C 24.003906 27.484375 23.460938 28.03125 23.460938 28.703125 L 23.460938 30.003906 C 23.460938 30.675781 24.007812 31.222656 24.679688 31.222656 C 25.351562 31.222656 25.898438 30.675781 25.898438 30.003906 L 25.898438 28.703125 C 25.898438 28.03125 25.351562 27.484375 24.679688 27.484375 Z M 24.679688 27.484375 "/>
<path style=" stroke:none;fill-rule:nonzero;fill:rgb(25.882353%,30.196078%,21.568627%);fill-opacity:1;" d="M 40.320312 27.484375 C 39.648438 27.484375 39.101562 28.03125 39.101562 28.703125 L 39.101562 30.003906 C 39.101562 30.675781 39.648438 31.222656 40.320312 31.222656 C 40.992188 31.222656 41.539062 30.675781 41.539062 30.003906 L 41.539062 28.703125 C 41.539062 28.03125 40.992188 27.484375 40.320312 27.484375 Z M 40.320312 27.484375 "/>
<path style=" stroke:none;fill-rule:nonzero;fill:rgb(25.882353%,30.196078%,21.568627%);fill-opacity:1;" d="M 25.984375 23.460938 L 23.371094 23.460938 C 22.699219 23.460938 22.152344 24.007812 22.152344 24.679688 C 22.152344 25.351562 22.699219 25.898438 23.371094 25.898438 L 25.980469 25.898438 C 26.652344 25.898438 27.199219 25.351562 27.199219 24.679688 C 27.199219 24.007812 26.652344 23.460938 25.980469 23.460938 Z M 25.984375 23.460938 "/>
<path style=" stroke:none;fill-rule:nonzero;fill:rgb(25.882353%,30.196078%,21.568627%);fill-opacity:1;" d="M 41.621094 23.460938 L 39.019531 23.460938 C 38.34375 23.460938 37.796875 24.007812 37.796875 24.679688 C 37.796875 25.351562 38.34375 25.898438 39.019531 25.898438 L 41.625 25.898438 C 42.296875 25.898438 42.84375 25.351562 42.84375 24.679688 C 42.84375 24.007812 42.296875 23.460938 41.625 23.460938 Z M 41.621094 23.460938 "/>
<path style=" stroke:none;fill-rule:nonzero;fill:rgb(25.882353%,30.196078%,21.568627%);fill-opacity:1;" d="M 38.363281 34.648438 L 26.636719 34.648438 C 25.960938 34.648438 25.414062 35.191406 25.414062 35.867188 C 25.414062 39.414062 28.59375 42.300781 32.5 42.300781 C 36.40625 42.300781 39.585938 39.414062 39.585938 35.867188 C 39.585938 35.191406 39.039062 34.644531 38.363281 34.648438 Z M 32.5 39.859375 C 30.59375 39.933594 28.839844 38.832031 28.074219 37.085938 L 36.925781 37.085938 C 36.160156 38.832031 34.40625 39.933594 32.5 39.859375 Z M 32.5 39.859375 "/>
</g>
</svg>
