<svg xmlns="http://www.w3.org/2000/svg" width="92.052" height="102.124" viewBox="0 0 92.052 102.124">
    <defs>
        <style>
            .cls-1{fill:#95a5a1}
        </style>
    </defs>
    <g id="Group_889" transform="translate(-802.509 -224)">
        <path id="Path_804" d="M815.356 320.653a1.532 1.532 0 0 0-.34-.5 1.545 1.545 0 0 0-1.393-.426 1.723 1.723 0 0 0-.286.085 1.5 1.5 0 0 0-.271.147 1.435 1.435 0 0 0-.232.193 1.153 1.153 0 0 0-.193.232 1.556 1.556 0 0 0-.147.271 1.819 1.819 0 0 0-.085.286 1.333 1.333 0 0 0-.031.3 1.552 1.552 0 0 0 .456 1.1 1.391 1.391 0 0 0 .232.186 1.137 1.137 0 0 0 .271.147 1.207 1.207 0 0 0 .286.085 1.342 1.342 0 0 0 .3.031 1.547 1.547 0 0 0 1.092-.449 1.464 1.464 0 0 0 .193-.24 1.262 1.262 0 0 0 .146-.263 1.4 1.4 0 0 0 .085-.294 1.484 1.484 0 0 0 0-.6 1.215 1.215 0 0 0-.083-.291z" class="cls-1" transform="translate(-2.234 -21.659)"/>
        <path id="Path_805" d="M888.1 320.653a1.142 1.142 0 0 0-.147-.271 1.1 1.1 0 0 0-.193-.232 1.543 1.543 0 0 0-1.393-.426 1.749 1.749 0 0 0-.286.085 1.883 1.883 0 0 0-.271.147 1.1 1.1 0 0 0-.232.193 1.552 1.552 0 0 0-.456 1.091 1.585 1.585 0 0 0 .456 1.1 1.36 1.36 0 0 0 .232.186 1.341 1.341 0 0 0 .271.147 1.222 1.222 0 0 0 .286.085 1.488 1.488 0 0 0 .6 0 1.283 1.283 0 0 0 .294-.085 1.245 1.245 0 0 0 .263-.147 1.357 1.357 0 0 0 .232-.186 1.549 1.549 0 0 0 .457-1.1 1.38 1.38 0 0 0-.031-.3 1.262 1.262 0 0 0-.082-.287z" class="cls-1" transform="translate(-18.697 -21.659)"/>
        <path id="Path_806" d="M841.313 226.5l-9.122-2.446c-.013 0-.027 0-.041-.006a1.507 1.507 0 0 0-.156-.026c-.054-.007-.108-.015-.162-.016h-21.767a1.547 1.547 0 0 0-1.547 1.547v6.136a1.547 1.547 0 0 0 1.547 1.547h6.247v4.521h-4.585a1.547 1.547 0 0 0-1.547 1.547v7.809h-6.123a1.547 1.547 0 0 0-1.547 1.547v75.921a1.547 1.547 0 0 0 1.547 1.547h33.738a1.547 1.547 0 0 0 1.547-1.547v-75.925a1.547 1.547 0 0 0-1.547-1.547h-6.118V239.3a1.547 1.547 0 0 0-1.547-1.547h-4.59v-4.521h5.24l8.144 2.183a1.527 1.527 0 0 0 .4.053 1.548 1.548 0 0 0 1.495-1.147l1.588-5.926a1.546 1.546 0 0 0-1.094-1.895zM805.6 323.029v-3.808h30.643v3.808zm30.643-6.9H805.6V250.2h4.576l-.007 41.709a1.547 1.547 0 0 0 3.095 0l.007-41.682h16.854a1.565 1.565 0 0 0 .278-.028h5.84zm-7.665-69.018h-15.304v-6.262h15.308zm-6.136-9.357h-3.04v-4.521h3.04zm15.785-5.728l-6.847-1.835c-.013 0-.027 0-.041-.006a1.446 1.446 0 0 0-.153-.026 1.566 1.566 0 0 0-.168-.017h-19.406v-3.041h19.976l7.43 1.991z" class="cls-1"/>
        <path id="Path_807" d="M909.8 225.547a1.547 1.547 0 0 0-1.546-1.547H871.39a1.547 1.547 0 0 0-1.547 1.547v7.215c0 .022.006.044.007.067s-.005.061 0 .093l4.449 74.8a1.53 1.53 0 0 0 .193.651 7.69 7.69 0 0 0 7.61 6.938h.015l2.326.029v9.21a1.547 1.547 0 0 0 1.547 1.547h7.669a1.547 1.547 0 0 0 1.547-1.547v-9.209l2.4-.029h.015a7.686 7.686 0 0 0 7.618-7.115 1.541 1.541 0 0 0 .111-.475l4.449-74.8v-.093c0-.032.007-.044.007-.067zm-36.864 1.547h33.769v4.121h-33.767zm19.171 95.914h-4.574v-7.643h4.574zm10.182-15.965a1.531 1.531 0 0 0-.118.591 4.593 4.593 0 0 1-4.586 4.589h-.019l-3.929.048h-7.63l-3.856-.048h-.019a4.593 4.593 0 0 1-4.587-4.589 1.53 1.53 0 0 0-.2-.748l-4.317-72.577h4.572l3.584 57.7a1.548 1.548 0 0 0 1.543 1.451h.1a1.546 1.546 0 0 0 1.448-1.64l-3.575-57.51h25.912z" class="cls-1" transform="translate(-15.24)"/>
    </g>
</svg>
