<svg xmlns="http://www.w3.org/2000/svg" width="78.475" height="138.487" viewBox="0 0 78.475 138.487">
    <defs>
        <style>
            .cls-2{fill:#95a5a1}
        </style>
    </defs>
    <g id="Group_966" opacity="0.74" transform="translate(-13)">
        <path id="Path_850" d="M46.081 21h-13.86l.048 9.232H23V44.07l9.232.048v9.2h13.849V44.13h9.232v-13.9h-9.232zM50.7 34.849v4.665h-9.235V48.7h-4.616v-9.17l-9.232-.048v-4.63h9.295l-.048-9.232h4.6v9.232z" class="cls-2" transform="translate(13.081 27.47)"/>
        <path id="Path_851" d="M91.443 2.689A2.308 2.308 0 0 0 89.168 0h-73.86a2.305 2.305 0 0 0-2.283 2.643l2.027 13.849 14.169 96.77v22.915a2.309 2.309 0 0 0 2.308 2.308H70.7a2.309 2.309 0 0 0 2.308-2.308v-22.89l16.127-96.749zM22.232 4.616v4.616h4.616V4.616h4.616v4.616h4.616V4.616h4.62v4.616h4.616V4.616h4.614v4.616h4.616V4.616h4.616v4.616h4.616V4.616h4.616v4.616h4.616V4.616h4.616v4.616h4.616V4.616h4.2L84.9 13.849H19.329l-1.353-9.233zm23.081 120.022h11.541v2.308H45.313zm13.849-4.616H33.838v-4.616h34.557v4.616zm9.586-9.232H33.526L20.007 18.465h64.129zm-34.91 23.08v-9.232H40.7v4.616a2.309 2.309 0 0 0 2.308 2.308h16.154a2.309 2.309 0 0 0 2.308-2.308v-4.616h6.924v9.232z" class="cls-2"/>
    </g>
</svg>
